<mxfile host="app.diagrams.net" agent="Mozilla/5.0 (Windows NT 10.0; Win64; x64) AppleWebKit/537.36 (KHTML, like Gecko) Chrome/131.0.0.0 Safari/537.36" version="25.0.3">
  <diagram id="C5RBs43oDa-KdzZeNtuy" name="Page-1">
    <mxGraphModel dx="1562" dy="810" grid="1" gridSize="10" guides="1" tooltips="1" connect="1" arrows="1" fold="1" page="1" pageScale="1" pageWidth="827" pageHeight="1169" math="0" shadow="0">
      <root>
        <mxCell id="WIyWlLk6GJQsqaUBKTNV-0" />
        <mxCell id="WIyWlLk6GJQsqaUBKTNV-1" parent="WIyWlLk6GJQsqaUBKTNV-0" />
        <mxCell id="0e7CGuW51SGAhtixBfSx-5" value="" style="shape=image;verticalLabelPosition=bottom;labelBackgroundColor=default;verticalAlign=top;aspect=fixed;imageAspect=0;image=data:image/svg+xml,PHN2ZyB4bWxucz0iaHR0cDovL3d3dy53My5vcmcvMjAwMC9zdmciIGlkPSJyZW5kZXJfc3ZnXzg3NjIiIHdpZHRoPSIxMDAlIiBzdHlsZT0ibWF4LXdpZHRoOiAxMjQ4LjIwMzEyNXB4OyIgdmlld0JveD0iMCAwIDEyNDguMjAzMTI1IDE2ODMuODAwMDQ4ODI4MTI1IiBhcmlhLXJvbGVkZXNjcmlwdGlvbj0iY2xhc3NEaWFncmFtIj48c3R5bGU+I3JlbmRlcl9zdmdfODc2Mntmb250LWZhbWlseToidHJlYnVjaGV0IG1zIix2ZXJkYW5hLGFyaWFsLHNhbnMtc2VyaWY7Zm9udC1zaXplOjE2cHg7ZmlsbDojMzMzO30jcmVuZGVyX3N2Z184NzYyIC5lcnJvci1pY29ue2ZpbGw6IzU1MjIyMjt9I3JlbmRlcl9zdmdfODc2MiAuZXJyb3ItdGV4dHtmaWxsOiM1NTIyMjI7c3Ryb2tlOiM1NTIyMjI7fSNyZW5kZXJfc3ZnXzg3NjIgLmVkZ2UtdGhpY2tuZXNzLW5vcm1hbHtzdHJva2Utd2lkdGg6MnB4O30jcmVuZGVyX3N2Z184NzYyIC5lZGdlLXRoaWNrbmVzcy10aGlja3tzdHJva2Utd2lkdGg6My41cHg7fSNyZW5kZXJfc3ZnXzg3NjIgLmVkZ2UtcGF0dGVybi1zb2xpZHtzdHJva2UtZGFzaGFycmF5OjA7fSNyZW5kZXJfc3ZnXzg3NjIgLmVkZ2UtcGF0dGVybi1kYXNoZWR7c3Ryb2tlLWRhc2hhcnJheTozO30jcmVuZGVyX3N2Z184NzYyIC5lZGdlLXBhdHRlcm4tZG90dGVke3N0cm9rZS1kYXNoYXJyYXk6Mjt9I3JlbmRlcl9zdmdfODc2MiAubWFya2Vye2ZpbGw6IzMzMzMzMztzdHJva2U6IzMzMzMzMzt9I3JlbmRlcl9zdmdfODc2MiAubWFya2VyLmNyb3Nze3N0cm9rZTojMzMzMzMzO30jcmVuZGVyX3N2Z184NzYyIHN2Z3tmb250LWZhbWlseToidHJlYnVjaGV0IG1zIix2ZXJkYW5hLGFyaWFsLHNhbnMtc2VyaWY7Zm9udC1zaXplOjE2cHg7fSNyZW5kZXJfc3ZnXzg3NjIgZy5jbGFzc0dyb3VwIHRleHR7ZmlsbDojOTM3MERCO2ZpbGw6IzEzMTMwMDtzdHJva2U6bm9uZTtmb250LWZhbWlseToidHJlYnVjaGV0IG1zIix2ZXJkYW5hLGFyaWFsLHNhbnMtc2VyaWY7Zm9udC1zaXplOjEwcHg7fSNyZW5kZXJfc3ZnXzg3NjIgZy5jbGFzc0dyb3VwIHRleHQgLnRpdGxle2ZvbnQtd2VpZ2h0OmJvbGRlcjt9I3JlbmRlcl9zdmdfODc2MiAubm9kZUxhYmVsLCNyZW5kZXJfc3ZnXzg3NjIgLmVkZ2VMYWJlbHtjb2xvcjojMTMxMzAwO30jcmVuZGVyX3N2Z184NzYyIC5lZGdlTGFiZWwgLmxhYmVsIHJlY3R7ZmlsbDojRUNFQ0ZGO30jcmVuZGVyX3N2Z184NzYyIC5sYWJlbCB0ZXh0e2ZpbGw6IzEzMTMwMDt9I3JlbmRlcl9zdmdfODc2MiAuZWRnZUxhYmVsIC5sYWJlbCBzcGFue2JhY2tncm91bmQ6I0VDRUNGRjt9I3JlbmRlcl9zdmdfODc2MiAuY2xhc3NUaXRsZXtmb250LXdlaWdodDpib2xkZXI7fSNyZW5kZXJfc3ZnXzg3NjIgLm5vZGUgcmVjdCwjcmVuZGVyX3N2Z184NzYyIC5ub2RlIGNpcmNsZSwjcmVuZGVyX3N2Z184NzYyIC5ub2RlIGVsbGlwc2UsI3JlbmRlcl9zdmdfODc2MiAubm9kZSBwb2x5Z29uLCNyZW5kZXJfc3ZnXzg3NjIgLm5vZGUgcGF0aHtmaWxsOiNFQ0VDRkY7c3Ryb2tlOiM5MzcwREI7c3Ryb2tlLXdpZHRoOjFweDt9I3JlbmRlcl9zdmdfODc2MiAuZGl2aWRlcntzdHJva2U6IzkzNzBEQjtzdHJva2U6MTt9I3JlbmRlcl9zdmdfODc2MiBnLmNsaWNrYWJsZXtjdXJzb3I6cG9pbnRlcjt9I3JlbmRlcl9zdmdfODc2MiBnLmNsYXNzR3JvdXAgcmVjdHtmaWxsOiNFQ0VDRkY7c3Ryb2tlOiM5MzcwREI7fSNyZW5kZXJfc3ZnXzg3NjIgZy5jbGFzc0dyb3VwIGxpbmV7c3Ryb2tlOiM5MzcwREI7c3Ryb2tlLXdpZHRoOjE7fSNyZW5kZXJfc3ZnXzg3NjIgLmNsYXNzTGFiZWwgLmJveHtzdHJva2U6bm9uZTtzdHJva2Utd2lkdGg6MDtmaWxsOiNFQ0VDRkY7b3BhY2l0eTowLjU7fSNyZW5kZXJfc3ZnXzg3NjIgLmNsYXNzTGFiZWwgLmxhYmVse2ZpbGw6IzkzNzBEQjtmb250LXNpemU6MTBweDt9I3JlbmRlcl9zdmdfODc2MiAucmVsYXRpb257c3Ryb2tlOiMzMzMzMzM7c3Ryb2tlLXdpZHRoOjE7ZmlsbDpub25lO30jcmVuZGVyX3N2Z184NzYyIC5kYXNoZWQtbGluZXtzdHJva2UtZGFzaGFycmF5OjM7fSNyZW5kZXJfc3ZnXzg3NjIgLmRvdHRlZC1saW5le3N0cm9rZS1kYXNoYXJyYXk6MSAyO30jcmVuZGVyX3N2Z184NzYyICNjb21wb3NpdGlvblN0YXJ0LCNyZW5kZXJfc3ZnXzg3NjIgLmNvbXBvc2l0aW9ue2ZpbGw6IzMzMzMzMyFpbXBvcnRhbnQ7c3Ryb2tlOiMzMzMzMzMhaW1wb3J0YW50O3N0cm9rZS13aWR0aDoxO30jcmVuZGVyX3N2Z184NzYyICNjb21wb3NpdGlvbkVuZCwjcmVuZGVyX3N2Z184NzYyIC5jb21wb3NpdGlvbntmaWxsOiMzMzMzMzMhaW1wb3J0YW50O3N0cm9rZTojMzMzMzMzIWltcG9ydGFudDtzdHJva2Utd2lkdGg6MTt9I3JlbmRlcl9zdmdfODc2MiAjZGVwZW5kZW5jeVN0YXJ0LCNyZW5kZXJfc3ZnXzg3NjIgLmRlcGVuZGVuY3l7ZmlsbDojMzMzMzMzIWltcG9ydGFudDtzdHJva2U6IzMzMzMzMyFpbXBvcnRhbnQ7c3Ryb2tlLXdpZHRoOjE7fSNyZW5kZXJfc3ZnXzg3NjIgI2RlcGVuZGVuY3lTdGFydCwjcmVuZGVyX3N2Z184NzYyIC5kZXBlbmRlbmN5e2ZpbGw6IzMzMzMzMyFpbXBvcnRhbnQ7c3Ryb2tlOiMzMzMzMzMhaW1wb3J0YW50O3N0cm9rZS13aWR0aDoxO30jcmVuZGVyX3N2Z184NzYyICNleHRlbnNpb25TdGFydCwjcmVuZGVyX3N2Z184NzYyIC5leHRlbnNpb257ZmlsbDojRUNFQ0ZGIWltcG9ydGFudDtzdHJva2U6IzMzMzMzMyFpbXBvcnRhbnQ7c3Ryb2tlLXdpZHRoOjE7fSNyZW5kZXJfc3ZnXzg3NjIgI2V4dGVuc2lvbkVuZCwjcmVuZGVyX3N2Z184NzYyIC5leHRlbnNpb257ZmlsbDojRUNFQ0ZGIWltcG9ydGFudDtzdHJva2U6IzMzMzMzMyFpbXBvcnRhbnQ7c3Ryb2tlLXdpZHRoOjE7fSNyZW5kZXJfc3ZnXzg3NjIgI2FnZ3JlZ2F0aW9uU3RhcnQsI3JlbmRlcl9zdmdfODc2MiAuYWdncmVnYXRpb257ZmlsbDojRUNFQ0ZGIWltcG9ydGFudDtzdHJva2U6IzMzMzMzMyFpbXBvcnRhbnQ7c3Ryb2tlLXdpZHRoOjE7fSNyZW5kZXJfc3ZnXzg3NjIgI2FnZ3JlZ2F0aW9uRW5kLCNyZW5kZXJfc3ZnXzg3NjIgLmFnZ3JlZ2F0aW9ue2ZpbGw6I0VDRUNGRiFpbXBvcnRhbnQ7c3Ryb2tlOiMzMzMzMzMhaW1wb3J0YW50O3N0cm9rZS13aWR0aDoxO30jcmVuZGVyX3N2Z184NzYyICNsb2xsaXBvcFN0YXJ0LCNyZW5kZXJfc3ZnXzg3NjIgLmxvbGxpcG9we2ZpbGw6I0VDRUNGRiFpbXBvcnRhbnQ7c3Ryb2tlOiMzMzMzMzMhaW1wb3J0YW50O3N0cm9rZS13aWR0aDoxO30jcmVuZGVyX3N2Z184NzYyICNsb2xsaXBvcEVuZCwjcmVuZGVyX3N2Z184NzYyIC5sb2xsaXBvcHtmaWxsOiNFQ0VDRkYhaW1wb3J0YW50O3N0cm9rZTojMzMzMzMzIWltcG9ydGFudDtzdHJva2Utd2lkdGg6MTt9I3JlbmRlcl9zdmdfODc2MiAuZWRnZVRlcm1pbmFsc3tmb250LXNpemU6MTFweDt9I3JlbmRlcl9zdmdfODc2MiAuY2xhc3NUaXRsZVRleHR7dGV4dC1hbmNob3I6bWlkZGxlO2ZvbnQtc2l6ZToxOHB4O2ZpbGw6IzMzMzt9I3JlbmRlcl9zdmdfODc2MiA6cm9vdHstLW1lcm1haWQtZm9udC1mYW1pbHk6InRyZWJ1Y2hldCBtcyIsdmVyZGFuYSxhcmlhbCxzYW5zLXNlcmlmO308L3N0eWxlPjxnPjxkZWZzPjxtYXJrZXIgaWQ9ImNsYXNzRGlhZ3JhbS1hZ2dyZWdhdGlvblN0YXJ0IiBjbGFzcz0ibWFya2VyIGFnZ3JlZ2F0aW9uIGNsYXNzRGlhZ3JhbSIgcmVmWD0iMCIgcmVmWT0iNyIgbWFya2VyV2lkdGg9IjE5MCIgbWFya2VySGVpZ2h0PSIyNDAiIG9yaWVudD0iYXV0byI+PHBhdGggZD0iTSAxOCw3IEw5LDEzIEwxLDcgTDksMSBaIi8+PC9tYXJrZXI+PC9kZWZzPjxkZWZzPjxtYXJrZXIgaWQ9ImNsYXNzRGlhZ3JhbS1hZ2dyZWdhdGlvbkVuZCIgY2xhc3M9Im1hcmtlciBhZ2dyZWdhdGlvbiBjbGFzc0RpYWdyYW0iIHJlZlg9IjE5IiByZWZZPSI3IiBtYXJrZXJXaWR0aD0iMjAiIG1hcmtlckhlaWdodD0iMjgiIG9yaWVudD0iYXV0byI+PHBhdGggZD0iTSAxOCw3IEw5LDEzIEwxLDcgTDksMSBaIi8+PC9tYXJrZXI+PC9kZWZzPjxkZWZzPjxtYXJrZXIgaWQ9ImNsYXNzRGlhZ3JhbS1leHRlbnNpb25TdGFydCIgY2xhc3M9Im1hcmtlciBleHRlbnNpb24gY2xhc3NEaWFncmFtIiByZWZYPSIwIiByZWZZPSI3IiBtYXJrZXJXaWR0aD0iMTkwIiBtYXJrZXJIZWlnaHQ9IjI0MCIgb3JpZW50PSJhdXRvIj48cGF0aCBkPSJNIDEsNyBMMTgsMTMgViAxIFoiLz48L21hcmtlcj48L2RlZnM+PGRlZnM+PG1hcmtlciBpZD0iY2xhc3NEaWFncmFtLWV4dGVuc2lvbkVuZCIgY2xhc3M9Im1hcmtlciBleHRlbnNpb24gY2xhc3NEaWFncmFtIiByZWZYPSIxOSIgcmVmWT0iNyIgbWFya2VyV2lkdGg9IjIwIiBtYXJrZXJIZWlnaHQ9IjI4IiBvcmllbnQ9ImF1dG8iPjxwYXRoIGQ9Ik0gMSwxIFYgMTMgTDE4LDcgWiIvPjwvbWFya2VyPjwvZGVmcz48ZGVmcz48bWFya2VyIGlkPSJjbGFzc0RpYWdyYW0tY29tcG9zaXRpb25TdGFydCIgY2xhc3M9Im1hcmtlciBjb21wb3NpdGlvbiBjbGFzc0RpYWdyYW0iIHJlZlg9IjAiIHJlZlk9IjciIG1hcmtlcldpZHRoPSIxOTAiIG1hcmtlckhlaWdodD0iMjQwIiBvcmllbnQ9ImF1dG8iPjxwYXRoIGQ9Ik0gMTgsNyBMOSwxMyBMMSw3IEw5LDEgWiIvPjwvbWFya2VyPjwvZGVmcz48ZGVmcz48bWFya2VyIGlkPSJjbGFzc0RpYWdyYW0tY29tcG9zaXRpb25FbmQiIGNsYXNzPSJtYXJrZXIgY29tcG9zaXRpb24gY2xhc3NEaWFncmFtIiByZWZYPSIxOSIgcmVmWT0iNyIgbWFya2VyV2lkdGg9IjIwIiBtYXJrZXJIZWlnaHQ9IjI4IiBvcmllbnQ9ImF1dG8iPjxwYXRoIGQ9Ik0gMTgsNyBMOSwxMyBMMSw3IEw5LDEgWiIvPjwvbWFya2VyPjwvZGVmcz48ZGVmcz48bWFya2VyIGlkPSJjbGFzc0RpYWdyYW0tZGVwZW5kZW5jeVN0YXJ0IiBjbGFzcz0ibWFya2VyIGRlcGVuZGVuY3kgY2xhc3NEaWFncmFtIiByZWZYPSIwIiByZWZZPSI3IiBtYXJrZXJXaWR0aD0iMTkwIiBtYXJrZXJIZWlnaHQ9IjI0MCIgb3JpZW50PSJhdXRvIj48cGF0aCBkPSJNIDUsNyBMOSwxMyBMMSw3IEw5LDEgWiIvPjwvbWFya2VyPjwvZGVmcz48ZGVmcz48bWFya2VyIGlkPSJjbGFzc0RpYWdyYW0tZGVwZW5kZW5jeUVuZCIgY2xhc3M9Im1hcmtlciBkZXBlbmRlbmN5IGNsYXNzRGlhZ3JhbSIgcmVmWD0iMTkiIHJlZlk9IjciIG1hcmtlcldpZHRoPSIyMCIgbWFya2VySGVpZ2h0PSIyOCIgb3JpZW50PSJhdXRvIj48cGF0aCBkPSJNIDE4LDcgTDksMTMgTDE0LDcgTDksMSBaIi8+PC9tYXJrZXI+PC9kZWZzPjxkZWZzPjxtYXJrZXIgaWQ9ImNsYXNzRGlhZ3JhbS1sb2xsaXBvcFN0YXJ0IiBjbGFzcz0ibWFya2VyIGxvbGxpcG9wIGNsYXNzRGlhZ3JhbSIgcmVmWD0iMCIgcmVmWT0iNyIgbWFya2VyV2lkdGg9IjE5MCIgbWFya2VySGVpZ2h0PSIyNDAiIG9yaWVudD0iYXV0byI+PGNpcmNsZSBzdHJva2U9ImJsYWNrIiBmaWxsPSJ3aGl0ZSIgY3g9IjYiIGN5PSI3IiByPSI2Ii8+PC9tYXJrZXI+PC9kZWZzPjxnIGNsYXNzPSJyb290Ij48ZyBjbGFzcz0iY2x1c3RlcnMiLz48ZyBjbGFzcz0iZWRnZVBhdGhzIj48cGF0aCBkPSJNODUzLjMyODE0Nzg4ODE4MzYsMTM4MC4wMDAwMDk1MzY3NDMyTDg1My4zMjgxNDc4ODgxODM2LDEzODkuODMzMzQzOTgyNjk2NUM4NTMuMzI4MTQ3ODg4MTgzNiwxMzk5LjY2NjY3ODQyODY1LDg1My4zMjgxNDc4ODgxODM2LDE0MTkuMzMzMzQ3MzIwNTU2Niw4NTguMjU2ODI2MzUyOTk1NiwxNDM1LjA2NjY4MTg2MTg3NzRDODYzLjE4NTUwNDgxNzgwNzcsMTQ1MC44MDAwMTY0MDMxOTgyLDg3My4wNDI4NjE3NDc0MzE3LDE0NjIuNjAwMDE2NTkzOTMzLDg3Ny45NzE1NDAyMTIyNDM4LDE0NjguNTAwMDE2Njg5MzAwNUw4ODIuOTAwMjE4Njc3MDU1NywxNDc0LjQwMDAxNjc4NDY2OCIgaWQ9ImlkMSIgY2xhc3M9ImVkZ2UtcGF0dGVybi1zb2xpZCByZWxhdGlvbiIgc3R5bGU9ImZpbGw6bm9uZSIgbWFya2VyLWVuZD0idXJsKCNjbGFzc0RpYWdyYW0tZGVwZW5kZW5jeUVuZCkiLz48cGF0aCBkPSJNMTA1MS4xNDM1NzQwNDc1NTM2LDE0NzQuNDAwMDE2Nzg0NjY4TDEwNTYuMDcyMjUyNTEyMzY1NiwxNDY4LjUwMDAxNjY4OTMwMDVDMTA2MS4wMDA5MzA5NzcxNzc2LDE0NjIuNjAwMDE2NTkzOTMzLDEwNzAuODU4Mjg3OTA2ODAxNywxNDUwLjgwMDAxNjQwMzE5ODIsMTA3NS43ODY5NjYzNzE2MTM3LDE0MTguMjgzMzQ5MDM3MTcwNEMxMDgwLjcxNTY0NDgzNjQyNTgsMTM4NS43NjY2ODE2NzExNDI2LDEwODAuNzE1NjQ0ODM2NDI1OCwxMzMyLjUzMzM0NzEyOTgyMTgsMTA4MC43MTU2NDQ4MzY0MjU4LDEyNzkuMzAwMDEyNTg4NTAxQzEwODAuNzE1NjQ0ODM2NDI1OCwxMjI2LjA2NjY3ODA0NzE4MDIsMTA4MC43MTU2NDQ4MzY0MjU4LDExNzIuODMzMzQzNTA1ODU5NCwxMDc4LjIwOTg4MDQ4MTcwMzMsMTE0MC4zMTY2NzYxMzk4MzE1QzEwNzUuNzA0MTE2MTI2OTgwOCwxMTA3LjgwMDAwODc3MzgwMzcsMTA3MC42OTI1ODc0MTc1MzYsMTA5Ni4wMDAwMDg1ODMwNjg4LDEwNjguMTg2ODIzMDYyODEzNiwxMDkwLjEwMDAwODQ4NzcwMTRMMTA2NS42ODEwNTg3MDgwOTEsMTA4NC4yMDAwMDgzOTIzMzQiIGlkPSJpZDIiIGNsYXNzPSJlZGdlLXBhdHRlcm4tc29saWQgcmVsYXRpb24iIHN0eWxlPSJmaWxsOm5vbmUiIG1hcmtlci1lbmQ9InVybCgjY2xhc3NEaWFncmFtLWRlcGVuZGVuY3lFbmQpIi8+PHBhdGggZD0iTTg2OC4zNjI3MzQwMTY1MTgzLDEwODQuMjAwMDA4MzkyMzM0TDg2NS44NTY5Njk2NjE3OTU5LDEwOTAuMTAwMDA4NDg3NzAxNEM4NjMuMzUxMjA1MzA3MDczNCwxMDk2LjAwMDAwODU4MzA2ODgsODU4LjMzOTY3NjU5NzYyODYsMTEwNy44MDAwMDg3NzM4MDM3LDg1NS44MzM5MTIyNDI5MDYxLDExMjMuNTMzMzQzMzE1MTI0NUM4NTMuMzI4MTQ3ODg4MTgzNiwxMTM5LjI2NjY3Nzg1NjQ0NTMsODUzLjMyODE0Nzg4ODE4MzYsMTE1OC45MzMzNDY3NDgzNTIsODUzLjMyODE0Nzg4ODE4MzYsMTE2OC43NjY2ODExOTQzMDU0TDg1My4zMjgxNDc4ODgxODM2LDExNzguNjAwMDE1NjQwMjU4OCIgaWQ9ImlkMyIgY2xhc3M9ImVkZ2UtcGF0dGVybi1zb2xpZCByZWxhdGlvbiIgc3R5bGU9ImZpbGw6bm9uZSIgbWFya2VyLWVuZD0idXJsKCNjbGFzc0RpYWdyYW0tZGVwZW5kZW5jeUVuZCkiLz48cGF0aCBkPSJNMzc2LjIwNjI2ODMxMDU0NjksMjMxLjYzOTc1OTM0MDkyMDU2TDM2Mi44NTEwNTg5NTk5NjA5NCwyMzcuNTY2NDY2NzIxNDI3NTNDMzQ5LjQ5NTg0OTYwOTM3NSwyNDMuNDkzMTc0MTAxOTM0NTMsMzIyLjc4NTQzMDkwODIwMzEsMjU1LjM0NjU4ODg2Mjk0ODQ3LDMwOS40MzAyMjE1NTc2MTcyLDI2Ny4xNzMyOTYzMzg4MjI4N0MyOTYuMDc1MDEyMjA3MDMxMjUsMjc5LjAwMDAwMzgxNDY5NzI3LDI5Ni4wNzUwMTIyMDcwMzEyNSwyOTAuODAwMDA0MDA1NDMyMTMsMjk2LjA3NTAxMjIwNzAzMTI1LDI5Ni43MDAwMDQxMDA3OTk1NkwyOTYuMDc1MDEyMjA3MDMxMjUsMzAyLjYwMDAwNDE5NjE2NyIgaWQ9ImlkNCIgY2xhc3M9ImVkZ2UtcGF0dGVybi1zb2xpZCByZWxhdGlvbiIgc3R5bGU9ImZpbGw6bm9uZSIgbWFya2VyLWVuZD0idXJsKCNjbGFzc0RpYWdyYW0tZGVwZW5kZW5jeUVuZCkiLz48cGF0aCBkPSJNODY1Ljc5NDY0MTY5NjAxODUsMjMxLjgwMDAwMzA1MTc1NzhMODc4LjMzMjUxNzQ3MzczMjksMjM3LjcwMDAwMzE0NzEyNTI0Qzg5MC44NzAzOTMyNTE0NDcyLDI0My42MDAwMDMyNDI0OTI2OCw5MTUuOTQ2MTQ0ODA2ODc2LDI1NS40MDAwMDM0MzMyMjc1NCw5MjguNDg0MDIwNTg0NTkwMywyNjcuMjAwMDAzNjIzOTYyNEM5NDEuMDIxODk2MzYyMzA0NywyNzkuMDAwMDAzODE0Njk3MjcsOTQxLjAyMTg5NjM2MjMwNDcsMjkwLjgwMDAwNDAwNTQzMjEzLDk0MS4wMjE4OTYzNjIzMDQ3LDI5Ni43MDAwMDQxMDA3OTk1Nkw5NDEuMDIxODk2MzYyMzA0NywzMDIuNjAwMDA0MTk2MTY3IiBpZD0iaWQ1IiBjbGFzcz0iZWRnZS1wYXR0ZXJuLXNvbGlkIHJlbGF0aW9uIiBzdHlsZT0iZmlsbDpub25lIiBtYXJrZXItZW5kPSJ1cmwoI2NsYXNzRGlhZ3JhbS1kZXBlbmRlbmN5RW5kKSIvPjxwYXRoIGQ9Ik0yNTUuNjg4ODkyNTkwODE5ODgsNTQ4LjgwMDAwMTE0NDQwOTJMMjUzLjc1MzI0NTg2MDE4ODQ2LDU1NC43MDAwMDEyMzk3NzY2QzI1MS44MTc1OTkxMjk1NTcsNTYwLjYwMDAwMTMzNTE0NCwyNDcuOTQ2MzA1NjY4Mjk0MTQsNTcyLjQwMDAwMTUyNTg3ODksMjQ4LjA5MjM0MjM0NTg3MzM2LDU5OS43MzMzMzQ1NDEzMjA4QzI0OC4yMzgzNzkwMjM0NTI1OCw2MjcuMDY2NjY3NTU2NzYyNywyNTIuNDAxNzQ1ODM5ODczODgsNjY5LjkzMzMzMzM5NjkxMTYsMjU0LjQ4MzQyOTI0ODA4NDU1LDY5MS4zNjY2NjYzMTY5ODYxTDI1Ni41NjUxMTI2NTYyOTUyLDcxMi43OTk5OTkyMzcwNjA1IiBpZD0iaWQ2IiBjbGFzcz0iZWRnZS1wYXR0ZXJuLXNvbGlkIHJlbGF0aW9uIiBzdHlsZT0iZmlsbDpub25lIiBtYXJrZXItZW5kPSJ1cmwoI2NsYXNzRGlhZ3JhbS1kZXBlbmRlbmN5RW5kKSIvPjxwYXRoIGQ9Ik01NTkuMzc4NDM5OTUyNDA3Nyw1NDguODAwMDAxMTQ0NDA5Mkw1NzEuOTk4MTgyMTc4NzY0Miw1NTQuNzAwMDAxMjM5Nzc2NkM1ODQuNjE3OTI0NDA1MTIwOCw1NjAuNjAwMDAxMzM1MTQ0LDYwOS44NTc0MDg4NTc4MzM4LDU3Mi40MDAwMDE1MjU4Nzg5LDY0Mi4wMTE1MjY1OTI4MTY2LDU5NC4wNTQ2MjE5MzExNzEzQzY3NC4xNjU2NDQzMjc3OTk0LDYxNS43MDkyNDIzMzY0NjM1LDcxMy4yMzQzOTUzNDUwNTIxLDY0Ny4yMTg0ODI5NTYzMTMzLDczMi43Njg3NzA4NTM2NzgzLDY2Mi45NzMxMDMyNjYyMzgxTDc1Mi4zMDMxNDYzNjIzMDQ3LDY3OC43Mjc3MjM1NzYxNjMiIGlkPSJpZDciIGNsYXNzPSJlZGdlLXBhdHRlcm4tc29saWQgcmVsYXRpb24iIHN0eWxlPSJmaWxsOm5vbmUiIG1hcmtlci1lbmQ9InVybCgjY2xhc3NEaWFncmFtLWRlcGVuZGVuY3lFbmQpIi8+PHBhdGggZD0iTTY2My4wMzcyNDI3Njg0MzcyLDU0OC44MDAwMDExNDQ0MDkyTDY0OS43MTM4NTExOTIxMjIxLDU1NC43MDAwMDEyMzk3NzY2QzYzNi4zOTA0NTk2MTU4MDcxLDU2MC42MDAwMDEzMzUxNDQsNjA5Ljc0MzY3NjQ2MzE3NjksNTcyLjQwMDAwMTUyNTg3ODksNTcxLjM1ODI2NzMzNjg1ODgsNTk5LjczMzMzNDU0MTMyMDhDNTMyLjk3Mjg1ODIxMDU0MDgsNjI3LjA2NjY2NzU1Njc2MjcsNDgyLjg0ODgyMzExMDUzNDgsNjY5LjkzMzMzMzM5NjkxMTYsNDU3Ljc4NjgwNTU2MDUzMTgsNjkxLjM2NjY2NjMxNjk4NjFMNDMyLjcyNDc4ODAxMDUyODc1LDcxMi43OTk5OTkyMzcwNjA1IiBpZD0iaWQ4IiBjbGFzcz0iZWRnZS1wYXR0ZXJuLXNvbGlkIHJlbGF0aW9uIiBzdHlsZT0iZmlsbDpub25lIiBtYXJrZXItZW5kPSJ1cmwoI2NsYXNzRGlhZ3JhbS1kZXBlbmRlbmN5RW5kKSIvPjxwYXRoIGQ9Ik05ODEuNDA4MDE1OTc4NTE2LDU0OC44MDAwMDExNDQ0MDkyTDk4My4zNDM2NjI3MDkxNDc1LDU1NC43MDAwMDEyMzk3NzY2Qzk4NS4yNzkzMDk0Mzk3Nzg5LDU2MC42MDAwMDEzMzUxNDQsOTg5LjE1MDYwMjkwMTA0MTksNTcyLjQwMDAwMTUyNTg3ODksOTkwLjUxMzIyMDExOTUyMiw1ODQuMjAwMDAxNzE2NjEzOEM5OTEuODc1ODM3MzM4MDAyLDU5Ni4wMDAwMDE5MDczNDg2LDk5MC43Mjk3NzgzMTM2OTkzLDYwNy44MDAwMDIwOTgwODM1LDk5MC4xNTY3NDg4MDE1NDgsNjEzLjcwMDAwMjE5MzQ1MDlMOTg5LjU4MzcxOTI4OTM5NjYsNjE5LjYwMDAwMjI4ODgxODQiIGlkPSJpZDkiIGNsYXNzPSJlZGdlLXBhdHRlcm4tc29saWQgcmVsYXRpb24iIHN0eWxlPSJmaWxsOm5vbmUiIG1hcmtlci1lbmQ9InVybCgjY2xhc3NEaWFncmFtLWRlcGVuZGVuY3lFbmQpIi8+PHBhdGggZD0iTTI3MC4wNzUwMTIyMDcwMzEyNSw5OTEuMDAwMDExNDQ0MDkxOEwyNzAuMDc1MDEyMjA3MDMxMjUsMTAxMi40MzMzNDQzNjQxNjYzQzI3MC4wNzUwMTIyMDcwMzEyNSwxMDMzLjg2NjY3NzI4NDI0MDcsMjcwLjA3NTAxMjIwNzAzMTI1LDEwNzYuNzMzMzQzMTI0Mzg5NiwyNzAuMDc1MDEyMjA3MDMxMjUsMTEwNC4wNjY2NzYxMzk4MzE1QzI3MC4wNzUwMTIyMDcwMzEyNSwxMTMxLjQwMDAwOTE1NTI3MzQsMjcwLjA3NTAxMjIwNzAzMTI1LDExNDMuMjAwMDA5MzQ2MDA4MywyNzAuMDc1MDEyMjA3MDMxMjUsMTE0OS4xMDAwMDk0NDEzNzU3TDI3MC4wNzUwMTIyMDcwMzEyNSwxMTU1LjAwMDAwOTUzNjc0MzIiIGlkPSJpZDEwIiBjbGFzcz0iZWRnZS1wYXR0ZXJuLXNvbGlkIHJlbGF0aW9uIiBzdHlsZT0iZmlsbDpub25lIiBtYXJrZXItZW5kPSJ1cmwoI2NsYXNzRGlhZ3JhbS1kZXBlbmRlbmN5RW5kKSIvPjwvZz48ZyBjbGFzcz0iZWRnZUxhYmVscyI+PGcgY2xhc3M9ImVkZ2VMYWJlbCIgdHJhbnNmb3JtPSJ0cmFuc2xhdGUoODUzLjMyODE0Nzg4ODE4MzYsIDE0MzkuMDAwMDE2MjEyNDYzNCkiPjxnIGNsYXNzPSJsYWJlbCIgdHJhbnNmb3JtPSJ0cmFuc2xhdGUoLTE2LCAtMTAuNDAwMDAwNTcyMjA0NTkpIj48Zm9yZWlnbk9iamVjdCB3aWR0aD0iMzIiIGhlaWdodD0iMjAuODAwMDAxMTQ0NDA5MTgiPjxkaXYgeG1sbnM9Imh0dHA6Ly93d3cudzMub3JnLzE5OTkveGh0bWwiIHN0eWxlPSJkaXNwbGF5OiBpbmxpbmUtYmxvY2s7IHdoaXRlLXNwYWNlOiBub3dyYXA7Ij48c3BhbiBjbGFzcz0iZWRnZUxhYmVsIj48c3BhbiBjbGFzcz0iZWRnZUxhYmVsIj7nrqHnkIY8L3NwYW4+PC9zcGFuPjwvZGl2PjwvZm9yZWlnbk9iamVjdD48L2c+PC9nPjxnIGNsYXNzPSJlZGdlVGVybWluYWxzIiB0cmFuc2Zvcm09InRyYW5zbGF0ZSg4MzguMzI4MTQ3ODg4MTgzNiwgMTM5Ny41MDAwMDk1MzY3NDMyKSI+PGcgY2xhc3M9ImlubmVyIiB0cmFuc2Zvcm09InRyYW5zbGF0ZSgwLCAwKSI+PGZvcmVpZ25PYmplY3Qgc3R5bGU9IndpZHRoOiA5cHg7IGhlaWdodDogMTJweDsiPjxkaXYgeG1sbnM9Imh0dHA6Ly93d3cudzMub3JnLzE5OTkveGh0bWwiIHN0eWxlPSJkaXNwbGF5OiBpbmxpbmUtYmxvY2s7IHdoaXRlLXNwYWNlOiBub3dyYXA7Ij48c3BhbiBjbGFzcz0iZWRnZUxhYmVsIj4xPC9zcGFuPjwvZGl2PjwvZm9yZWlnbk9iamVjdD48L2c+PC9nPjxnIGNsYXNzPSJlZGdlVGVybWluYWxzIiB0cmFuc2Zvcm09InRyYW5zbGF0ZSg4NzguMTkyNjQ3Njk4ODM3NSwgMTQ0Ni4zNTMwMTA3OTExMDcyKSI+PGcgY2xhc3M9ImlubmVyIiB0cmFuc2Zvcm09InRyYW5zbGF0ZSgwLCAwKSIvPjxmb3JlaWduT2JqZWN0IHN0eWxlPSJ3aWR0aDogOXB4OyBoZWlnaHQ6IDEycHg7Ij48ZGl2IHhtbG5zPSJodHRwOi8vd3d3LnczLm9yZy8xOTk5L3hodG1sIiBzdHlsZT0iZGlzcGxheTogaW5saW5lLWJsb2NrOyB3aGl0ZS1zcGFjZTogbm93cmFwOyI+PHNwYW4gY2xhc3M9ImVkZ2VMYWJlbCI+MTwvc3Bhbj48L2Rpdj48L2ZvcmVpZ25PYmplY3Q+PC9nPjxnIGNsYXNzPSJlZGdlTGFiZWwiIHRyYW5zZm9ybT0idHJhbnNsYXRlKDEwODAuNzE1NjQ0ODM2NDI1OCwgMTI3OS4zMDAwMTI1ODg1MDEpIj48ZyBjbGFzcz0ibGFiZWwiIHRyYW5zZm9ybT0idHJhbnNsYXRlKC0xNiwgLTEwLjQwMDAwMDU3MjIwNDU5KSI+PGZvcmVpZ25PYmplY3Qgd2lkdGg9IjMyIiBoZWlnaHQ9IjIwLjgwMDAwMTE0NDQwOTE4Ij48ZGl2IHhtbG5zPSJodHRwOi8vd3d3LnczLm9yZy8xOTk5L3hodG1sIiBzdHlsZT0iZGlzcGxheTogaW5saW5lLWJsb2NrOyB3aGl0ZS1zcGFjZTogbm93cmFwOyI+PHNwYW4gY2xhc3M9ImVkZ2VMYWJlbCI+PHNwYW4gY2xhc3M9ImVkZ2VMYWJlbCI+55uR5ZCsPC9zcGFuPjwvc3Bhbj48L2Rpdj48L2ZvcmVpZ25PYmplY3Q+PC9nPjwvZz48ZyBjbGFzcz0iZWRnZVRlcm1pbmFscyIgdHJhbnNmb3JtPSJ0cmFuc2xhdGUoMTA3My44NzQ3MTQzNTU1MDU4LCAxNDcwLjU4NjE5MTg5MzUzOSkiPjxnIGNsYXNzPSJpbm5lciIgdHJhbnNmb3JtPSJ0cmFuc2xhdGUoMCwgMCkiPjxmb3JlaWduT2JqZWN0IHN0eWxlPSJ3aWR0aDogOXB4OyBoZWlnaHQ6IDEycHg7Ij48ZGl2IHhtbG5zPSJodHRwOi8vd3d3LnczLm9yZy8xOTk5L3hodG1sIiBzdHlsZT0iZGlzcGxheTogaW5saW5lLWJsb2NrOyB3aGl0ZS1zcGFjZTogbm93cmFwOyI+PHNwYW4gY2xhc3M9ImVkZ2VMYWJlbCI+MTwvc3Bhbj48L2Rpdj48L2ZvcmVpZ25PYmplY3Q+PC9nPjwvZz48ZyBjbGFzcz0iZWRnZVRlcm1pbmFscyIgdHJhbnNmb3JtPSJ0cmFuc2xhdGUoMTA1My43MTU1ODA2NDI2OTk1LCAxMTAxLjE3MTE3MzkzNTM5NCkiPjxnIGNsYXNzPSJpbm5lciIgdHJhbnNmb3JtPSJ0cmFuc2xhdGUoMCwgMCkiLz48Zm9yZWlnbk9iamVjdCBzdHlsZT0id2lkdGg6IDlweDsgaGVpZ2h0OiAxMnB4OyI+PGRpdiB4bWxucz0iaHR0cDovL3d3dy53My5vcmcvMTk5OS94aHRtbCIgc3R5bGU9ImRpc3BsYXk6IGlubGluZS1ibG9jazsgd2hpdGUtc3BhY2U6IG5vd3JhcDsiPjxzcGFuIGNsYXNzPSJlZGdlTGFiZWwiPio8L3NwYW4+PC9kaXY+PC9mb3JlaWduT2JqZWN0PjwvZz48ZyBjbGFzcz0iZWRnZUxhYmVsIiB0cmFuc2Zvcm09InRyYW5zbGF0ZSg4NTMuMzI4MTQ3ODg4MTgzNiwgMTExOS42MDAwMDg5NjQ1Mzg2KSI+PGcgY2xhc3M9ImxhYmVsIiB0cmFuc2Zvcm09InRyYW5zbGF0ZSgtMTYsIC0xMC40MDAwMDA1NzIyMDQ1OSkiPjxmb3JlaWduT2JqZWN0IHdpZHRoPSIzMiIgaGVpZ2h0PSIyMC44MDAwMDExNDQ0MDkxOCI+PGRpdiB4bWxucz0iaHR0cDovL3d3dy53My5vcmcvMTk5OS94aHRtbCIgc3R5bGU9ImRpc3BsYXk6IGlubGluZS1ibG9jazsgd2hpdGUtc3BhY2U6IG5vd3JhcDsiPjxzcGFuIGNsYXNzPSJlZGdlTGFiZWwiPjxzcGFuIGNsYXNzPSJlZGdlTGFiZWwiPuaJgOWxnjwvc3Bhbj48L3NwYW4+PC9kaXY+PC9mb3JlaWduT2JqZWN0PjwvZz48L2c+PGcgY2xhc3M9ImVkZ2VUZXJtaW5hbHMiIHRyYW5zZm9ybT0idHJhbnNsYXRlKDg0Ny43MTUzNjExODM5NjU5LCAxMDk0LjQ0MzgzNTU2MzU0MikiPjxnIGNsYXNzPSJpbm5lciIgdHJhbnNmb3JtPSJ0cmFuc2xhdGUoMCwgMCkiPjxmb3JlaWduT2JqZWN0IHN0eWxlPSJ3aWR0aDogOXB4OyBoZWlnaHQ6IDEycHg7Ij48ZGl2IHhtbG5zPSJodHRwOi8vd3d3LnczLm9yZy8xOTk5L3hodG1sIiBzdHlsZT0iZGlzcGxheTogaW5saW5lLWJsb2NrOyB3aGl0ZS1zcGFjZTogbm93cmFwOyI+PHNwYW4gY2xhc3M9ImVkZ2VMYWJlbCI+MTwvc3Bhbj48L2Rpdj48L2ZvcmVpZ25PYmplY3Q+PC9nPjwvZz48ZyBjbGFzcz0iZWRnZVRlcm1pbmFscyIgdHJhbnNmb3JtPSJ0cmFuc2xhdGUoODYzLjMyODE0Nzg4ODE4MzYsIDExNTYuMTAwMDE1NjQwMjU4OCkiPjxnIGNsYXNzPSJpbm5lciIgdHJhbnNmb3JtPSJ0cmFuc2xhdGUoMCwgMCkiLz48Zm9yZWlnbk9iamVjdCBzdHlsZT0id2lkdGg6IDlweDsgaGVpZ2h0OiAxMnB4OyI+PGRpdiB4bWxucz0iaHR0cDovL3d3dy53My5vcmcvMTk5OS94aHRtbCIgc3R5bGU9ImRpc3BsYXk6IGlubGluZS1ibG9jazsgd2hpdGUtc3BhY2U6IG5vd3JhcDsiPjxzcGFuIGNsYXNzPSJlZGdlTGFiZWwiPjE8L3NwYW4+PC9kaXY+PC9mb3JlaWduT2JqZWN0PjwvZz48ZyBjbGFzcz0iZWRnZUxhYmVsIiB0cmFuc2Zvcm09InRyYW5zbGF0ZSgyOTYuMDc1MDEyMjA3MDMxMjUsIDI2Ny4yMDAwMDM2MjM5NjI0KSI+PGcgY2xhc3M9ImxhYmVsIiB0cmFuc2Zvcm09InRyYW5zbGF0ZSgtMTYsIC0xMC40MDAwMDA1NzIyMDQ1OSkiPjxmb3JlaWduT2JqZWN0IHdpZHRoPSIzMiIgaGVpZ2h0PSIyMC44MDAwMDExNDQ0MDkxOCI+PGRpdiB4bWxucz0iaHR0cDovL3d3dy53My5vcmcvMTk5OS94aHRtbCIgc3R5bGU9ImRpc3BsYXk6IGlubGluZS1ibG9jazsgd2hpdGUtc3BhY2U6IG5vd3JhcDsiPjxzcGFuIGNsYXNzPSJlZGdlTGFiZWwiPjxzcGFuIGNsYXNzPSJlZGdlTGFiZWwiPuaLpeaciTwvc3Bhbj48L3NwYW4+PC9kaXY+PC9mb3JlaWduT2JqZWN0PjwvZz48L2c+PGcgY2xhc3M9ImVkZ2VUZXJtaW5hbHMiIHRyYW5zZm9ybT0idHJhbnNsYXRlKDM1NC4xMjYxODMyNTIzNzMxLCAyMjUuMDI3NjYxMDQ4ODY0NDIpIj48ZyBjbGFzcz0iaW5uZXIiIHRyYW5zZm9ybT0idHJhbnNsYXRlKDAsIDApIj48Zm9yZWlnbk9iamVjdCBzdHlsZT0id2lkdGg6IDlweDsgaGVpZ2h0OiAxMnB4OyI+PGRpdiB4bWxucz0iaHR0cDovL3d3dy53My5vcmcvMTk5OS94aHRtbCIgc3R5bGU9ImRpc3BsYXk6IGlubGluZS1ibG9jazsgd2hpdGUtc3BhY2U6IG5vd3JhcDsiPjxzcGFuIGNsYXNzPSJlZGdlTGFiZWwiPjE8L3NwYW4+PC9kaXY+PC9mb3JlaWduT2JqZWN0PjwvZz48L2c+PGcgY2xhc3M9ImVkZ2VUZXJtaW5hbHMiIHRyYW5zZm9ybT0idHJhbnNsYXRlKDMwNi4wNzUwMTIyMDcwMzEyNSwgMjgwLjEwMDAwNDE5NjE2NykiPjxnIGNsYXNzPSJpbm5lciIgdHJhbnNmb3JtPSJ0cmFuc2xhdGUoMCwgMCkiLz48Zm9yZWlnbk9iamVjdCBzdHlsZT0id2lkdGg6IDlweDsgaGVpZ2h0OiAxMnB4OyI+PGRpdiB4bWxucz0iaHR0cDovL3d3dy53My5vcmcvMTk5OS94aHRtbCIgc3R5bGU9ImRpc3BsYXk6IGlubGluZS1ibG9jazsgd2hpdGUtc3BhY2U6IG5vd3JhcDsiPjxzcGFuIGNsYXNzPSJlZGdlTGFiZWwiPjE8L3NwYW4+PC9kaXY+PC9mb3JlaWduT2JqZWN0PjwvZz48ZyBjbGFzcz0iZWRnZUxhYmVsIiB0cmFuc2Zvcm09InRyYW5zbGF0ZSg5NDEuMDIxODk2MzYyMzA0NywgMjY3LjIwMDAwMzYyMzk2MjQpIj48ZyBjbGFzcz0ibGFiZWwiIHRyYW5zZm9ybT0idHJhbnNsYXRlKC0xNiwgLTEwLjQwMDAwMDU3MjIwNDU5KSI+PGZvcmVpZ25PYmplY3Qgd2lkdGg9IjMyIiBoZWlnaHQ9IjIwLjgwMDAwMTE0NDQwOTE4Ij48ZGl2IHhtbG5zPSJodHRwOi8vd3d3LnczLm9yZy8xOTk5L3hodG1sIiBzdHlsZT0iZGlzcGxheTogaW5saW5lLWJsb2NrOyB3aGl0ZS1zcGFjZTogbm93cmFwOyI+PHNwYW4gY2xhc3M9ImVkZ2VMYWJlbCI+PHNwYW4gY2xhc3M9ImVkZ2VMYWJlbCI+566h55CGPC9zcGFuPjwvc3Bhbj48L2Rpdj48L2ZvcmVpZ25PYmplY3Q+PC9nPjwvZz48ZyBjbGFzcz0iZWRnZVRlcm1pbmFscyIgdHJhbnNmb3JtPSJ0cmFuc2xhdGUoODc1LjI0MjI1NjA3MTUyMTUsIDI1Mi44MjM2MjI2ODgwNTcxOCkiPjxnIGNsYXNzPSJpbm5lciIgdHJhbnNmb3JtPSJ0cmFuc2xhdGUoMCwgMCkiPjxmb3JlaWduT2JqZWN0IHN0eWxlPSJ3aWR0aDogOXB4OyBoZWlnaHQ6IDEycHg7Ij48ZGl2IHhtbG5zPSJodHRwOi8vd3d3LnczLm9yZy8xOTk5L3hodG1sIiBzdHlsZT0iZGlzcGxheTogaW5saW5lLWJsb2NrOyB3aGl0ZS1zcGFjZTogbm93cmFwOyI+PHNwYW4gY2xhc3M9ImVkZ2VMYWJlbCI+MTwvc3Bhbj48L2Rpdj48L2ZvcmVpZ25PYmplY3Q+PC9nPjwvZz48ZyBjbGFzcz0iZWRnZVRlcm1pbmFscyIgdHJhbnNmb3JtPSJ0cmFuc2xhdGUoOTUxLjAyMTg5NjM2MjMwNDcsIDI4MC4xMDAwMDQxOTYxNjcpIj48ZyBjbGFzcz0iaW5uZXIiIHRyYW5zZm9ybT0idHJhbnNsYXRlKDAsIDApIi8+PGZvcmVpZ25PYmplY3Qgc3R5bGU9IndpZHRoOiA5cHg7IGhlaWdodDogMTJweDsiPjxkaXYgeG1sbnM9Imh0dHA6Ly93d3cudzMub3JnLzE5OTkveGh0bWwiIHN0eWxlPSJkaXNwbGF5OiBpbmxpbmUtYmxvY2s7IHdoaXRlLXNwYWNlOiBub3dyYXA7Ij48c3BhbiBjbGFzcz0iZWRnZUxhYmVsIj4qPC9zcGFuPjwvZGl2PjwvZm9yZWlnbk9iamVjdD48L2c+PGcgY2xhc3M9ImVkZ2VMYWJlbCIgdHJhbnNmb3JtPSJ0cmFuc2xhdGUoMjQ0LjA3NTAxMjIwNzAzMTI1LCA1ODQuMjAwMDAxNzE2NjEzOCkiPjxnIGNsYXNzPSJsYWJlbCIgdHJhbnNmb3JtPSJ0cmFuc2xhdGUoLTE2LCAtMTAuNDAwMDAwNTcyMjA0NTkpIj48Zm9yZWlnbk9iamVjdCB3aWR0aD0iMzIiIGhlaWdodD0iMjAuODAwMDAxMTQ0NDA5MTgiPjxkaXYgeG1sbnM9Imh0dHA6Ly93d3cudzMub3JnLzE5OTkveGh0bWwiIHN0eWxlPSJkaXNwbGF5OiBpbmxpbmUtYmxvY2s7IHdoaXRlLXNwYWNlOiBub3dyYXA7Ij48c3BhbiBjbGFzcz0iZWRnZUxhYmVsIj48c3BhbiBjbGFzcz0iZWRnZUxhYmVsIj7kvb/nlKg8L3NwYW4+PC9zcGFuPjwvZGl2PjwvZm9yZWlnbk9iamVjdD48L2c+PC9nPjxnIGNsYXNzPSJlZGdlVGVybWluYWxzIiB0cmFuc2Zvcm09InRyYW5zbGF0ZSgyMzUuOTgxMDgwMTQxMDUzMjQsIDU2MC43NTIwNzc0Njc5OTUpIj48ZyBjbGFzcz0iaW5uZXIiIHRyYW5zZm9ybT0idHJhbnNsYXRlKDAsIDApIj48Zm9yZWlnbk9iamVjdCBzdHlsZT0id2lkdGg6IDlweDsgaGVpZ2h0OiAxMnB4OyI+PGRpdiB4bWxucz0iaHR0cDovL3d3dy53My5vcmcvMTk5OS94aHRtbCIgc3R5bGU9ImRpc3BsYXk6IGlubGluZS1ibG9jazsgd2hpdGUtc3BhY2U6IG5vd3JhcDsiPjxzcGFuIGNsYXNzPSJlZGdlTGFiZWwiPjE8L3NwYW4+PC9kaXY+PC9mb3JlaWduT2JqZWN0PjwvZz48L2c+PGcgY2xhc3M9ImVkZ2VUZXJtaW5hbHMiIHRyYW5zZm9ybT0idHJhbnNsYXRlKDI2NC44MDMxNTgxNzE3MjUxNiwgNjg4LjkzMTkyNjk3MzgwNTcpIj48ZyBjbGFzcz0iaW5uZXIiIHRyYW5zZm9ybT0idHJhbnNsYXRlKDAsIDApIi8+PGZvcmVpZ25PYmplY3Qgc3R5bGU9IndpZHRoOiA5cHg7IGhlaWdodDogMTJweDsiPjxkaXYgeG1sbnM9Imh0dHA6Ly93d3cudzMub3JnLzE5OTkveGh0bWwiIHN0eWxlPSJkaXNwbGF5OiBpbmxpbmUtYmxvY2s7IHdoaXRlLXNwYWNlOiBub3dyYXA7Ij48c3BhbiBjbGFzcz0iZWRnZUxhYmVsIj4xPC9zcGFuPjwvZGl2PjwvZm9yZWlnbk9iamVjdD48L2c+PGcgY2xhc3M9ImVkZ2VMYWJlbCIgdHJhbnNmb3JtPSJ0cmFuc2xhdGUoNjM1LjA5Njg5MzMxMDU0NjksIDU4NC4yMDAwMDE3MTY2MTM4KSI+PGcgY2xhc3M9ImxhYmVsIiB0cmFuc2Zvcm09InRyYW5zbGF0ZSgtMTYsIC0xMC40MDAwMDA1NzIyMDQ1OSkiPjxmb3JlaWduT2JqZWN0IHdpZHRoPSIzMiIgaGVpZ2h0PSIyMC44MDAwMDExNDQ0MDkxOCI+PGRpdiB4bWxucz0iaHR0cDovL3d3dy53My5vcmcvMTk5OS94aHRtbCIgc3R5bGU9ImRpc3BsYXk6IGlubGluZS1ibG9jazsgd2hpdGUtc3BhY2U6IG5vd3JhcDsiPjxzcGFuIGNsYXNzPSJlZGdlTGFiZWwiPjxzcGFuIGNsYXNzPSJlZGdlTGFiZWwiPueuoeeQhjwvc3Bhbj48L3NwYW4+PC9kaXY+PC9mb3JlaWduT2JqZWN0PjwvZz48L2c+PGcgY2xhc3M9ImVkZ2VUZXJtaW5hbHMiIHRyYW5zZm9ybT0idHJhbnNsYXRlKDU2OC44Nzg2Mjk5NDAyNjkyLCA1NjkuNzk5OTE1MTk2NDg0MSkiPjxnIGNsYXNzPSJpbm5lciIgdHJhbnNmb3JtPSJ0cmFuc2xhdGUoMCwgMCkiPjxmb3JlaWduT2JqZWN0IHN0eWxlPSJ3aWR0aDogOXB4OyBoZWlnaHQ6IDEycHg7Ij48ZGl2IHhtbG5zPSJodHRwOi8vd3d3LnczLm9yZy8xOTk5L3hodG1sIiBzdHlsZT0iZGlzcGxheTogaW5saW5lLWJsb2NrOyB3aGl0ZS1zcGFjZTogbm93cmFwOyI+PHNwYW4gY2xhc3M9ImVkZ2VMYWJlbCI+MTwvc3Bhbj48L2Rpdj48L2ZvcmVpZ25PYmplY3Q+PC9nPjwvZz48ZyBjbGFzcz0iZWRnZVRlcm1pbmFscyIgdHJhbnNmb3JtPSJ0cmFuc2xhdGUoNzQzLjA5Nzk3MjI5ODU5MjksIDY1MS4wNjU3MTc2ODMxNzM2KSI+PGcgY2xhc3M9ImlubmVyIiB0cmFuc2Zvcm09InRyYW5zbGF0ZSgwLCAwKSIvPjxmb3JlaWduT2JqZWN0IHN0eWxlPSJ3aWR0aDogOXB4OyBoZWlnaHQ6IDEycHg7Ij48ZGl2IHhtbG5zPSJodHRwOi8vd3d3LnczLm9yZy8xOTk5L3hodG1sIiBzdHlsZT0iZGlzcGxheTogaW5saW5lLWJsb2NrOyB3aGl0ZS1zcGFjZTogbm93cmFwOyI+PHNwYW4gY2xhc3M9ImVkZ2VMYWJlbCI+MTwvc3Bhbj48L2Rpdj48L2ZvcmVpZ25PYmplY3Q+PC9nPjxnIGNsYXNzPSJlZGdlTGFiZWwiIHRyYW5zZm9ybT0idHJhbnNsYXRlKDU4My4wOTY4OTMzMTA1NDY5LCA1ODQuMjAwMDAxNzE2NjEzOCkiPjxnIGNsYXNzPSJsYWJlbCIgdHJhbnNmb3JtPSJ0cmFuc2xhdGUoLTE2LCAtMTAuNDAwMDAwNTcyMjA0NTkpIj48Zm9yZWlnbk9iamVjdCB3aWR0aD0iMzIiIGhlaWdodD0iMjAuODAwMDAxMTQ0NDA5MTgiPjxkaXYgeG1sbnM9Imh0dHA6Ly93d3cudzMub3JnLzE5OTkveGh0bWwiIHN0eWxlPSJkaXNwbGF5OiBpbmxpbmUtYmxvY2s7IHdoaXRlLXNwYWNlOiBub3dyYXA7Ij48c3BhbiBjbGFzcz0iZWRnZUxhYmVsIj48c3BhbiBjbGFzcz0iZWRnZUxhYmVsIj7kvb/nlKg8L3NwYW4+PC9zcGFuPjwvZGl2PjwvZm9yZWlnbk9iamVjdD48L2c+PC9nPjxnIGNsYXNzPSJlZGdlVGVybWluYWxzIiB0cmFuc2Zvcm09InRyYW5zbGF0ZSg2NDAuOTYyMzg1NDI4MTAxOCwgNTQyLjE3MDQ3MDczODQyNzQpIj48ZyBjbGFzcz0iaW5uZXIiIHRyYW5zZm9ybT0idHJhbnNsYXRlKDAsIDApIj48Zm9yZWlnbk9iamVjdCBzdHlsZT0id2lkdGg6IDlweDsgaGVpZ2h0OiAxMnB4OyI+PGRpdiB4bWxucz0iaHR0cDovL3d3dy53My5vcmcvMTk5OS94aHRtbCIgc3R5bGU9ImRpc3BsYXk6IGlubGluZS1ibG9jazsgd2hpdGUtc3BhY2U6IG5vd3JhcDsiPjxzcGFuIGNsYXNzPSJlZGdlTGFiZWwiPjE8L3NwYW4+PC9kaXY+PC9mb3JlaWduT2JqZWN0PjwvZz48L2c+PGcgY2xhc3M9ImVkZ2VUZXJtaW5hbHMiIHRyYW5zZm9ybT0idHJhbnNsYXRlKDQ1MC43NzM2MzQ4NDUxNzMzLCA3MDcuODI1NjgxNzgxNjMzKSI+PGcgY2xhc3M9ImlubmVyIiB0cmFuc2Zvcm09InRyYW5zbGF0ZSgwLCAwKSIvPjxmb3JlaWduT2JqZWN0IHN0eWxlPSJ3aWR0aDogOXB4OyBoZWlnaHQ6IDEycHg7Ij48ZGl2IHhtbG5zPSJodHRwOi8vd3d3LnczLm9yZy8xOTk5L3hodG1sIiBzdHlsZT0iZGlzcGxheTogaW5saW5lLWJsb2NrOyB3aGl0ZS1zcGFjZTogbm93cmFwOyI+PHNwYW4gY2xhc3M9ImVkZ2VMYWJlbCI+MTwvc3Bhbj48L2Rpdj48L2ZvcmVpZ25PYmplY3Q+PC9nPjxnIGNsYXNzPSJlZGdlTGFiZWwiIHRyYW5zZm9ybT0idHJhbnNsYXRlKDk5My4wMjE4OTYzNjIzMDQ3LCA1ODQuMjAwMDAxNzE2NjEzOCkiPjxnIGNsYXNzPSJsYWJlbCIgdHJhbnNmb3JtPSJ0cmFuc2xhdGUoLTE2LCAtMTAuNDAwMDAwNTcyMjA0NTkpIj48Zm9yZWlnbk9iamVjdCB3aWR0aD0iMzIiIGhlaWdodD0iMjAuODAwMDAxMTQ0NDA5MTgiPjxkaXYgeG1sbnM9Imh0dHA6Ly93d3cudzMub3JnLzE5OTkveGh0bWwiIHN0eWxlPSJkaXNwbGF5OiBpbmxpbmUtYmxvY2s7IHdoaXRlLXNwYWNlOiBub3dyYXA7Ij48c3BhbiBjbGFzcz0iZWRnZUxhYmVsIj48c3BhbiBjbGFzcz0iZWRnZUxhYmVsIj7nrqHnkIY8L3NwYW4+PC9zcGFuPjwvZGl2PjwvZm9yZWlnbk9iamVjdD48L2c+PC9nPjxnIGNsYXNzPSJlZGdlVGVybWluYWxzIiB0cmFuc2Zvcm09InRyYW5zbGF0ZSg5NzIuNjEwNjg4MzM5Mjg5NiwgNTcwLjEwMzkyMTU5MTMxNTMpIj48ZyBjbGFzcz0iaW5uZXIiIHRyYW5zZm9ybT0idHJhbnNsYXRlKDAsIDApIj48Zm9yZWlnbk9iamVjdCBzdHlsZT0id2lkdGg6IDlweDsgaGVpZ2h0OiAxMnB4OyI+PGRpdiB4bWxucz0iaHR0cDovL3d3dy53My5vcmcvMTk5OS94aHRtbCIgc3R5bGU9ImRpc3BsYXk6IGlubGluZS1ibG9jazsgd2hpdGUtc3BhY2U6IG5vd3JhcDsiPjxzcGFuIGNsYXNzPSJlZGdlTGFiZWwiPjE8L3NwYW4+PC9kaXY+PC9mb3JlaWduT2JqZWN0PjwvZz48L2c+PGcgY2xhc3M9ImVkZ2VUZXJtaW5hbHMiIHRyYW5zZm9ybT0idHJhbnNsYXRlKDEwMDEuMjA1MTcxOTc2NjA2MiwgNTk4LjYzMTk5MzMxNTY2MDUpIj48ZyBjbGFzcz0iaW5uZXIiIHRyYW5zZm9ybT0idHJhbnNsYXRlKDAsIDApIi8+PGZvcmVpZ25PYmplY3Qgc3R5bGU9IndpZHRoOiA5cHg7IGhlaWdodDogMTJweDsiPjxkaXYgeG1sbnM9Imh0dHA6Ly93d3cudzMub3JnLzE5OTkveGh0bWwiIHN0eWxlPSJkaXNwbGF5OiBpbmxpbmUtYmxvY2s7IHdoaXRlLXNwYWNlOiBub3dyYXA7Ij48c3BhbiBjbGFzcz0iZWRnZUxhYmVsIj4xPC9zcGFuPjwvZGl2PjwvZm9yZWlnbk9iamVjdD48L2c+PGcgY2xhc3M9ImVkZ2VMYWJlbCIgdHJhbnNmb3JtPSJ0cmFuc2xhdGUoMjcwLjA3NTAxMjIwNzAzMTI1LCAxMTE5LjYwMDAwODk2NDUzODYpIj48ZyBjbGFzcz0ibGFiZWwiIHRyYW5zZm9ybT0idHJhbnNsYXRlKC0xNiwgLTEwLjQwMDAwMDU3MjIwNDU5KSI+PGZvcmVpZ25PYmplY3Qgd2lkdGg9IjMyIiBoZWlnaHQ9IjIwLjgwMDAwMTE0NDQwOTE4Ij48ZGl2IHhtbG5zPSJodHRwOi8vd3d3LnczLm9yZy8xOTk5L3hodG1sIiBzdHlsZT0iZGlzcGxheTogaW5saW5lLWJsb2NrOyB3aGl0ZS1zcGFjZTogbm93cmFwOyI+PHNwYW4gY2xhc3M9ImVkZ2VMYWJlbCI+PHNwYW4gY2xhc3M9ImVkZ2VMYWJlbCI+5YWz6IGUPC9zcGFuPjwvc3Bhbj48L2Rpdj48L2ZvcmVpZ25PYmplY3Q+PC9nPjwvZz48ZyBjbGFzcz0iZWRnZVRlcm1pbmFscyIgdHJhbnNmb3JtPSJ0cmFuc2xhdGUoMjU1LjA3NTAxMjIwNzAzMTI1LCAxMDA4LjUwMDAxMTQ0NDA5MTgpIj48ZyBjbGFzcz0iaW5uZXIiIHRyYW5zZm9ybT0idHJhbnNsYXRlKDAsIDApIj48Zm9yZWlnbk9iamVjdCBzdHlsZT0id2lkdGg6IDlweDsgaGVpZ2h0OiAxMnB4OyI+PGRpdiB4bWxucz0iaHR0cDovL3d3dy53My5vcmcvMTk5OS94aHRtbCIgc3R5bGU9ImRpc3BsYXk6IGlubGluZS1ibG9jazsgd2hpdGUtc3BhY2U6IG5vd3JhcDsiPjxzcGFuIGNsYXNzPSJlZGdlTGFiZWwiPjE8L3NwYW4+PC9kaXY+PC9mb3JlaWduT2JqZWN0PjwvZz48L2c+PGcgY2xhc3M9ImVkZ2VUZXJtaW5hbHMiIHRyYW5zZm9ybT0idHJhbnNsYXRlKDI4MC4wNzUwMTIyMDcwMzEyNSwgMTEzMi41MDAwMDk1MzY3NDMyKSI+PGcgY2xhc3M9ImlubmVyIiB0cmFuc2Zvcm09InRyYW5zbGF0ZSgwLCAwKSIvPjxmb3JlaWduT2JqZWN0IHN0eWxlPSJ3aWR0aDogOXB4OyBoZWlnaHQ6IDEycHg7Ij48ZGl2IHhtbG5zPSJodHRwOi8vd3d3LnczLm9yZy8xOTk5L3hodG1sIiBzdHlsZT0iZGlzcGxheTogaW5saW5lLWJsb2NrOyB3aGl0ZS1zcGFjZTogbm93cmFwOyI+PHNwYW4gY2xhc3M9ImVkZ2VMYWJlbCI+MTwvc3Bhbj48L2Rpdj48L2ZvcmVpZ25PYmplY3Q+PC9nPjwvZz48ZyBjbGFzcz0ibm9kZXMiPjxnIGNsYXNzPSJub2RlIGRlZmF1bHQiIGlkPSJjbGFzc2lkLUluZXRBZGRyZXNzLTgiIHRyYW5zZm9ybT0idHJhbnNsYXRlKDI3MC4wNzUwMTIyMDcwMzEyNSwgMTI3OS4zMDAwMTI1ODg1MDEpIj48cmVjdCBjbGFzcz0ib3V0ZXIgdGl0bGUtc3RhdGUiIHg9Ii0yNjIuMDc0OTk2OTQ4MjQyMiIgeT0iLTEyNC4zMDAwMDIwOTgwODM1IiB3aWR0aD0iNTI0LjE0OTk5Mzg5NjQ4NDQiIGhlaWdodD0iMjQ4LjYwMDAwNDE5NjE2NyIvPjxsaW5lIGNsYXNzPSJkaXZpZGVyIiB4MT0iLTI2Mi4wNzQ5OTY5NDgyNDIyIiB4Mj0iMjYyLjA3NDk5Njk0ODI0MjIiIHkxPSItOTMuOTAwMDAyNDc5NTUzMjIiIHkyPSItOTMuOTAwMDAyNDc5NTUzMjIiLz48bGluZSBjbGFzcz0iZGl2aWRlciIgeDE9Ii0yNjIuMDc0OTk2OTQ4MjQyMiIgeDI9IjI2Mi4wNzQ5OTY5NDgyNDIyIiB5MT0iLTMzLjEwMDAwMzI0MjQ5MjY3NiIgeTI9Ii0zMy4xMDAwMDMyNDI0OTI2NzYiLz48ZyBjbGFzcz0ibGFiZWwiPjxmb3JlaWduT2JqZWN0IHdpZHRoPSIwIiBoZWlnaHQ9IjAiPjxkaXYgeG1sbnM9Imh0dHA6Ly93d3cudzMub3JnLzE5OTkveGh0bWwiIHN0eWxlPSJkaXNwbGF5OiBpbmxpbmUtYmxvY2s7IHdoaXRlLXNwYWNlOiBub3dyYXA7Ij48c3BhbiBjbGFzcz0ibm9kZUxhYmVsIj48L3NwYW4+PC9kaXY+PC9mb3JlaWduT2JqZWN0Pjxmb3JlaWduT2JqZWN0IGNsYXNzPSJjbGFzc1RpdGxlIiB3aWR0aD0iODcuOTYyNTAxNTI1ODc4OSIgaGVpZ2h0PSIxOC4zOTk5OTk2MTg1MzAyNzMiIHRyYW5zZm9ybT0idHJhbnNsYXRlKCAtNDMuOTgxMjUwNzYyOTM5NDUsIC0xMTYuODAwMDAyMDk4MDgzNSkiPjxkaXYgeG1sbnM9Imh0dHA6Ly93d3cudzMub3JnLzE5OTkveGh0bWwiIHN0eWxlPSJkaXNwbGF5OiBpbmxpbmUtYmxvY2s7IHdoaXRlLXNwYWNlOiBub3dyYXA7Ij48c3BhbiBjbGFzcz0ibm9kZUxhYmVsIj5JbmV0QWRkcmVzczwvc3Bhbj48L2Rpdj48L2ZvcmVpZ25PYmplY3Q+PGZvcmVpZ25PYmplY3Qgd2lkdGg9IjEzMy4xNzUwMDMwNTE3NTc4IiBoZWlnaHQ9IjE4LjM5OTk5OTYxODUzMDI3MyIgdHJhbnNmb3JtPSJ0cmFuc2xhdGUoIC0yNTQuNTc0OTk2OTQ4MjQyMiwgLTgyLjQwMDAwMjQ3OTU1MzIyKSI+PGRpdiB4bWxucz0iaHR0cDovL3d3dy53My5vcmcvMTk5OS94aHRtbCIgc3R5bGU9ImRpc3BsYXk6IGlubGluZS1ibG9jazsgd2hpdGUtc3BhY2U6IG5vd3JhcDsiPjxzcGFuIGNsYXNzPSJub2RlTGFiZWwiPi0gc29ja2FkZHJfaW4gYWRkcjwvc3Bhbj48L2Rpdj48L2ZvcmVpZ25PYmplY3Q+PGZvcmVpZ25PYmplY3Qgd2lkdGg9IjE0Ni41MjUwMDkxNTUyNzM0NCIgaGVpZ2h0PSIxOC4zOTk5OTk2MTg1MzAyNzMiIHRyYW5zZm9ybT0idHJhbnNsYXRlKCAtMjU0LjU3NDk5Njk0ODI0MjIsIC02MC4wMDAwMDI4NjEwMjI5NSkiPjxkaXYgeG1sbnM9Imh0dHA6Ly93d3cudzMub3JnLzE5OTkveGh0bWwiIHN0eWxlPSJkaXNwbGF5OiBpbmxpbmUtYmxvY2s7IHdoaXRlLXNwYWNlOiBub3dyYXA7Ij48c3BhbiBjbGFzcz0ibm9kZUxhYmVsIj4tIHNvY2tsZW5fdCBhZGRyX2xlbjwvc3Bhbj48L2Rpdj48L2ZvcmVpZ25PYmplY3Q+PGZvcmVpZ25PYmplY3Qgd2lkdGg9IjI0MS43ODc1MDYxMDM1MTU2MiIgaGVpZ2h0PSIyMC44MDAwMDExNDQ0MDkxOCIgdHJhbnNmb3JtPSJ0cmFuc2xhdGUoIC0yNTQuNTc0OTk2OTQ4MjQyMiwgLTI1LjYwMDAwMzI0MjQ5MjY3NikiPjxkaXYgeG1sbnM9Imh0dHA6Ly93d3cudzMub3JnLzE5OTkveGh0bWwiIHN0eWxlPSJkaXNwbGF5OiBpbmxpbmUtYmxvY2s7IHdoaXRlLXNwYWNlOiBub3dyYXA7Ij48c3BhbiBjbGFzcz0ibm9kZUxhYmVsIj4rSW5ldEFkZHJlc3MoKSA6IDog5Yid5aeL5YyW5Zyw5Z2A5L+h5oGvPC9zcGFuPjwvZGl2PjwvZm9yZWlnbk9iamVjdD48Zm9yZWlnbk9iamVjdCB3aWR0aD0iNTA3IiBoZWlnaHQ9IjIwLjgwMDAwMTE0NDQwOTE4IiB0cmFuc2Zvcm09InRyYW5zbGF0ZSggLTI1NC41NzQ5OTY5NDgyNDIyLCAtMy4yMDAwMDM2MjM5NjI0MDIzKSI+PGRpdiB4bWxucz0iaHR0cDovL3d3dy53My5vcmcvMTk5OS94aHRtbCIgc3R5bGU9ImRpc3BsYXk6IGlubGluZS1ibG9jazsgd2hpdGUtc3BhY2U6IG5vd3JhcDsiPjxzcGFuIGNsYXNzPSJub2RlTGFiZWwiPitJbmV0QWRkcmVzcyhjb25zdCBjaGFyKiBpcCwgdWludDE2X3QgcG9ydCkgOiA6IOS9v+eUqElQ5ZKM56uv5Y+j5Yid5aeL5YyW5Zyw5Z2APC9zcGFuPjwvZGl2PjwvZm9yZWlnbk9iamVjdD48Zm9yZWlnbk9iamVjdCB3aWR0aD0iMTExLjk2MjUwMTUyNTg3ODkiIGhlaWdodD0iMTguMzk5OTk5NjE4NTMwMjczIiB0cmFuc2Zvcm09InRyYW5zbGF0ZSggLTI1NC41NzQ5OTY5NDgyNDIyLCAxOS4xOTk5OTU5OTQ1Njc4NykiPjxkaXYgeG1sbnM9Imh0dHA6Ly93d3cudzMub3JnLzE5OTkveGh0bWwiIHN0eWxlPSJkaXNwbGF5OiBpbmxpbmUtYmxvY2s7IHdoaXRlLXNwYWNlOiBub3dyYXA7Ij48c3BhbiBjbGFzcz0ibm9kZUxhYmVsIj4rfkluZXRBZGRyZXNzKCk8L3NwYW4+PC9kaXY+PC9mb3JlaWduT2JqZWN0Pjxmb3JlaWduT2JqZWN0IHdpZHRoPSI1MDkuMTQ5OTkzODk2NDg0NCIgaGVpZ2h0PSIyMC44MDAwMDExNDQ0MDkxOCIgdHJhbnNmb3JtPSJ0cmFuc2xhdGUoIC0yNTQuNTc0OTk2OTQ4MjQyMiwgNDEuNTk5OTk1NjEzMDk4MTQ1KSI+PGRpdiB4bWxucz0iaHR0cDovL3d3dy53My5vcmcvMTk5OS94aHRtbCIgc3R5bGU9ImRpc3BsYXk6IGlubGluZS1ibG9jazsgd2hpdGUtc3BhY2U6IG5vd3JhcDsiPjxzcGFuIGNsYXNzPSJub2RlTGFiZWwiPitzZXRJbmV0QWRkcihzb2NrYWRkcl9pbiBfYWRkciwgc29ja2xlbl90IF9hZGRyX2xlbikgOiA6IOiuvue9ruWcsOWdgOS/oeaBrzwvc3Bhbj48L2Rpdj48L2ZvcmVpZ25PYmplY3Q+PGZvcmVpZ25PYmplY3Qgd2lkdGg9IjI4OC45NjI0OTM4OTY0ODQ0IiBoZWlnaHQ9IjIwLjgwMDAwMTE0NDQwOTE4IiB0cmFuc2Zvcm09InRyYW5zbGF0ZSggLTI1NC41NzQ5OTY5NDgyNDIyLCA2My45OTk5OTUyMzE2Mjg0MikiPjxkaXYgeG1sbnM9Imh0dHA6Ly93d3cudzMub3JnLzE5OTkveGh0bWwiIHN0eWxlPSJkaXNwbGF5OiBpbmxpbmUtYmxvY2s7IHdoaXRlLXNwYWNlOiBub3dyYXA7Ij48c3BhbiBjbGFzcz0ibm9kZUxhYmVsIj4rc29ja2FkZHJfaW4gZ2V0QWRkcigpIDogOiDojrflj5blnLDlnYDnu5PmnoQ8L3NwYW4+PC9kaXY+PC9mb3JlaWduT2JqZWN0Pjxmb3JlaWduT2JqZWN0IHdpZHRoPSIzMDIuMzEyNSIgaGVpZ2h0PSIyMC44MDAwMDExNDQ0MDkxOCIgdHJhbnNmb3JtPSJ0cmFuc2xhdGUoIC0yNTQuNTc0OTk2OTQ4MjQyMiwgODYuMzk5OTk0ODUwMTU4NjkpIj48ZGl2IHhtbG5zPSJodHRwOi8vd3d3LnczLm9yZy8xOTk5L3hodG1sIiBzdHlsZT0iZGlzcGxheTogaW5saW5lLWJsb2NrOyB3aGl0ZS1zcGFjZTogbm93cmFwOyI+PHNwYW4gY2xhc3M9Im5vZGVMYWJlbCI+K3NvY2tsZW5fdCBnZXRBZGRyX2xlbigpIDogOiDojrflj5blnLDlnYDplb/luqY8L3NwYW4+PC9kaXY+PC9mb3JlaWduT2JqZWN0PjwvZz48L2c+PGcgY2xhc3M9Im5vZGUgZGVmYXVsdCIgaWQ9ImNsYXNzaWQtU29ja2V0LTkiIHRyYW5zZm9ybT0idHJhbnNsYXRlKDI3MC4wNzUwMTIyMDcwMzEyNSwgODUxLjkwMDAwNTM0MDU3NjIpIj48cmVjdCBjbGFzcz0ib3V0ZXIgdGl0bGUtc3RhdGUiIHg9Ii0xOTguMTkzNzU2MTAzNTE1NjIiIHk9Ii0xMzkuMTAwMDA0MTk2MTY3IiB3aWR0aD0iMzk2LjM4NzUxMjIwNzAzMTI1IiBoZWlnaHQ9IjI3OC4yMDAwMDgzOTIzMzQiLz48bGluZSBjbGFzcz0iZGl2aWRlciIgeDE9Ii0xOTguMTkzNzU2MTAzNTE1NjIiIHgyPSIxOTguMTkzNzU2MTAzNTE1NjIiIHkxPSItMTA4LjcwMDAwNDU3NzYzNjcyIiB5Mj0iLTEwOC43MDAwMDQ1Nzc2MzY3MiIvPjxsaW5lIGNsYXNzPSJkaXZpZGVyIiB4MT0iLTE5OC4xOTM3NTYxMDM1MTU2MiIgeDI9IjE5OC4xOTM3NTYxMDM1MTU2MiIgeTE9Ii03MC4zMDAwMDQ5NTkxMDY0NSIgeTI9Ii03MC4zMDAwMDQ5NTkxMDY0NSIvPjxnIGNsYXNzPSJsYWJlbCI+PGZvcmVpZ25PYmplY3Qgd2lkdGg9IjAiIGhlaWdodD0iMCI+PGRpdiB4bWxucz0iaHR0cDovL3d3dy53My5vcmcvMTk5OS94aHRtbCIgc3R5bGU9ImRpc3BsYXk6IGlubGluZS1ibG9jazsgd2hpdGUtc3BhY2U6IG5vd3JhcDsiPjxzcGFuIGNsYXNzPSJub2RlTGFiZWwiPjwvc3Bhbj48L2Rpdj48L2ZvcmVpZ25PYmplY3Q+PGZvcmVpZ25PYmplY3QgY2xhc3M9ImNsYXNzVGl0bGUiIHdpZHRoPSI0OS43Mzc0OTkyMzcwNjA1NSIgaGVpZ2h0PSIxOC4zOTk5OTk2MTg1MzAyNzMiIHRyYW5zZm9ybT0idHJhbnNsYXRlKCAtMjQuODY4NzQ5NjE4NTMwMjczLCAtMTMxLjYwMDAwNDE5NjE2NykiPjxkaXYgeG1sbnM9Imh0dHA6Ly93d3cudzMub3JnLzE5OTkveGh0bWwiIHN0eWxlPSJkaXNwbGF5OiBpbmxpbmUtYmxvY2s7IHdoaXRlLXNwYWNlOiBub3dyYXA7Ij48c3BhbiBjbGFzcz0ibm9kZUxhYmVsIj5Tb2NrZXQ8L3NwYW4+PC9kaXY+PC9mb3JlaWduT2JqZWN0Pjxmb3JlaWduT2JqZWN0IHdpZHRoPSI1MCIgaGVpZ2h0PSIxOC4zOTk5OTk2MTg1MzAyNzMiIHRyYW5zZm9ybT0idHJhbnNsYXRlKCAtMTkwLjY5Mzc1NjEwMzUxNTYyLCAtOTcuMjAwMDA0NTc3NjM2NzIpIj48ZGl2IHhtbG5zPSJodHRwOi8vd3d3LnczLm9yZy8xOTk5L3hodG1sIiBzdHlsZT0iZGlzcGxheTogaW5saW5lLWJsb2NrOyB3aGl0ZS1zcGFjZTogbm93cmFwOyI+PHNwYW4gY2xhc3M9Im5vZGVMYWJlbCI+LSBpbnQgZmQ8L3NwYW4+PC9kaXY+PC9mb3JlaWduT2JqZWN0Pjxmb3JlaWduT2JqZWN0IHdpZHRoPSIxNzMuNjk5OTk2OTQ4MjQyMiIgaGVpZ2h0PSIyMC44MDAwMDExNDQ0MDkxOCIgdHJhbnNmb3JtPSJ0cmFuc2xhdGUoIC0xOTAuNjkzNzU2MTAzNTE1NjIsIC02Mi44MDAwMDQ5NTkxMDY0NDUpIj48ZGl2IHhtbG5zPSJodHRwOi8vd3d3LnczLm9yZy8xOTk5L3hodG1sIiBzdHlsZT0iZGlzcGxheTogaW5saW5lLWJsb2NrOyB3aGl0ZS1zcGFjZTogbm93cmFwOyI+PHNwYW4gY2xhc3M9Im5vZGVMYWJlbCI+K1NvY2tldCgpIDogOiDliJvlu7rlpZfmjqXlrZc8L3NwYW4+PC9kaXY+PC9mb3JlaWduT2JqZWN0Pjxmb3JlaWduT2JqZWN0IHdpZHRoPSIzODEuMzg3NTEyMjA3MDMxMjUiIGhlaWdodD0iMjAuODAwMDAxMTQ0NDA5MTgiIHRyYW5zZm9ybT0idHJhbnNsYXRlKCAtMTkwLjY5Mzc1NjEwMzUxNTYyLCAtNDAuNDAwMDA1MzQwNTc2MTcpIj48ZGl2IHhtbG5zPSJodHRwOi8vd3d3LnczLm9yZy8xOTk5L3hodG1sIiBzdHlsZT0iZGlzcGxheTogaW5saW5lLWJsb2NrOyB3aGl0ZS1zcGFjZTogbm93cmFwOyI+PHNwYW4gY2xhc3M9Im5vZGVMYWJlbCI+K1NvY2tldChpbnQgX2ZkKSA6IDog5L2/55So546w5pyJ5paH5Lu25o+P6L+w56ym5Yid5aeL5YyW5aWX5o6l5a2XPC9zcGFuPjwvZGl2PjwvZm9yZWlnbk9iamVjdD48Zm9yZWlnbk9iamVjdCB3aWR0aD0iMTgyLjA4NzUwOTE1NTI3MzQ0IiBoZWlnaHQ9IjIwLjgwMDAwMTE0NDQwOTE4IiB0cmFuc2Zvcm09InRyYW5zbGF0ZSggLTE5MC42OTM3NTYxMDM1MTU2MiwgLTE4LjAwMDAwNTcyMjA0NTkpIj48ZGl2IHhtbG5zPSJodHRwOi8vd3d3LnczLm9yZy8xOTk5L3hodG1sIiBzdHlsZT0iZGlzcGxheTogaW5saW5lLWJsb2NrOyB3aGl0ZS1zcGFjZTogbm93cmFwOyI+PHNwYW4gY2xhc3M9Im5vZGVMYWJlbCI+K35Tb2NrZXQoKSA6IDog5YWz6Zet5aWX5o6l5a2XPC9zcGFuPjwvZGl2PjwvZm9yZWlnbk9iamVjdD48Zm9yZWlnbk9iamVjdCB3aWR0aD0iMjc2LjQ2MjQ5Mzg5NjQ4NDQiIGhlaWdodD0iMjAuODAwMDAxMTQ0NDA5MTgiIHRyYW5zZm9ybT0idHJhbnNsYXRlKCAtMTkwLjY5Mzc1NjEwMzUxNTYyLCA0LjM5OTk5Mzg5NjQ4NDM3NSkiPjxkaXYgeG1sbnM9Imh0dHA6Ly93d3cudzMub3JnLzE5OTkveGh0bWwiIHN0eWxlPSJkaXNwbGF5OiBpbmxpbmUtYmxvY2s7IHdoaXRlLXNwYWNlOiBub3dyYXA7Ij48c3BhbiBjbGFzcz0ibm9kZUxhYmVsIj4rYmluZChJbmV0QWRkcmVzcyogX2FkZHIpIDogOiDnu5HlrprlnLDlnYA8L3NwYW4+PC9kaXY+PC9mb3JlaWduT2JqZWN0Pjxmb3JlaWduT2JqZWN0IHdpZHRoPSIxODEuOTI1MDAzMDUxNzU3OCIgaGVpZ2h0PSIyMC44MDAwMDExNDQ0MDkxOCIgdHJhbnNmb3JtPSJ0cmFuc2xhdGUoIC0xOTAuNjkzNzU2MTAzNTE1NjIsIDI2Ljc5OTk5MzUxNTAxNDY1KSI+PGRpdiB4bWxucz0iaHR0cDovL3d3dy53My5vcmcvMTk5OS94aHRtbCIgc3R5bGU9ImRpc3BsYXk6IGlubGluZS1ibG9jazsgd2hpdGUtc3BhY2U6IG5vd3JhcDsiPjxzcGFuIGNsYXNzPSJub2RlTGFiZWwiPitsaXN0ZW4oKSA6IDog5byA5aeL55uR5ZCs6L+e5o6lPC9zcGFuPjwvZGl2PjwvZm9yZWlnbk9iamVjdD48Zm9yZWlnbk9iamVjdCB3aWR0aD0iMzI5LjUyNDk5Mzg5NjQ4NDQiIGhlaWdodD0iMjAuODAwMDAxMTQ0NDA5MTgiIHRyYW5zZm9ybT0idHJhbnNsYXRlKCAtMTkwLjY5Mzc1NjEwMzUxNTYyLCA0OS4xOTk5OTMxMzM1NDQ5MikiPjxkaXYgeG1sbnM9Imh0dHA6Ly93d3cudzMub3JnLzE5OTkveGh0bWwiIHN0eWxlPSJkaXNwbGF5OiBpbmxpbmUtYmxvY2s7IHdoaXRlLXNwYWNlOiBub3dyYXA7Ij48c3BhbiBjbGFzcz0ibm9kZUxhYmVsIj4rc2V0bm9uYmxvY2tpbmcoKSA6IDog6K6+572u5aWX5o6l5a2X5Li66Z2e6Zi75aGe5qih5byPPC9zcGFuPjwvZGl2PjwvZm9yZWlnbk9iamVjdD48Zm9yZWlnbk9iamVjdCB3aWR0aD0iMzM0LjAyNDk5Mzg5NjQ4NDQiIGhlaWdodD0iMjAuODAwMDAxMTQ0NDA5MTgiIHRyYW5zZm9ybT0idHJhbnNsYXRlKCAtMTkwLjY5Mzc1NjEwMzUxNTYyLCA3MS41OTk5OTI3NTIwNzUyKSI+PGRpdiB4bWxucz0iaHR0cDovL3d3dy53My5vcmcvMTk5OS94aHRtbCIgc3R5bGU9ImRpc3BsYXk6IGlubGluZS1ibG9jazsgd2hpdGUtc3BhY2U6IG5vd3JhcDsiPjxzcGFuIGNsYXNzPSJub2RlTGFiZWwiPitpbnQgYWNjZXB0KEluZXRBZGRyZXNzKiBfYWRkcikgOiA6IOaOpeWPl+aWsOi/nuaOpTwvc3Bhbj48L2Rpdj48L2ZvcmVpZ25PYmplY3Q+PGZvcmVpZ25PYmplY3Qgd2lkdGg9IjIyMy4yMzc1MDMwNTE3NTc4IiBoZWlnaHQ9IjIwLjgwMDAwMTE0NDQwOTE4IiB0cmFuc2Zvcm09InRyYW5zbGF0ZSggLTE5MC42OTM3NTYxMDM1MTU2MiwgOTMuOTk5OTkyMzcwNjA1NDcpIj48ZGl2IHhtbG5zPSJodHRwOi8vd3d3LnczLm9yZy8xOTk5L3hodG1sIiBzdHlsZT0iZGlzcGxheTogaW5saW5lLWJsb2NrOyB3aGl0ZS1zcGFjZTogbm93cmFwOyI+PHNwYW4gY2xhc3M9Im5vZGVMYWJlbCI+K2ludCBnZXRGZCgpIDogOiDojrflj5bmlofku7bmj4/ov7DnrKY8L3NwYW4+PC9kaXY+PC9mb3JlaWduT2JqZWN0PjwvZz48L2c+PGcgY2xhc3M9Im5vZGUgZGVmYXVsdCIgaWQ9ImNsYXNzaWQtQ2hhbm5lbC0xMCIgdHJhbnNmb3JtPSJ0cmFuc2xhdGUoOTY3LjAyMTg5NjM2MjMwNDcsIDg1MS45MDAwMDUzNDA1NzYyKSI+PHJlY3QgY2xhc3M9Im91dGVyIHRpdGxlLXN0YXRlIiB4PSItMjE0LjcxODc1IiB5PSItMjMyLjMwMDAwNDk1OTEwNjQ1IiB3aWR0aD0iNDI5LjQzNzUiIGhlaWdodD0iNDY0LjYwMDAwOTkxODIxMjkiLz48bGluZSBjbGFzcz0iZGl2aWRlciIgeDE9Ii0yMTQuNzE4NzUiIHgyPSIyMTQuNzE4NzUiIHkxPSItMjAxLjkwMDAwNTM0MDU3NjE3IiB5Mj0iLTIwMS45MDAwMDUzNDA1NzYxNyIvPjxsaW5lIGNsYXNzPSJkaXZpZGVyIiB4MT0iLTIxNC43MTg3NSIgeDI9IjIxNC43MTg3NSIgeTE9Ii03My45MDAwMDcyNDc5MjQ4IiB5Mj0iLTczLjkwMDAwNzI0NzkyNDgiLz48ZyBjbGFzcz0ibGFiZWwiPjxmb3JlaWduT2JqZWN0IHdpZHRoPSIwIiBoZWlnaHQ9IjAiPjxkaXYgeG1sbnM9Imh0dHA6Ly93d3cudzMub3JnLzE5OTkveGh0bWwiIHN0eWxlPSJkaXNwbGF5OiBpbmxpbmUtYmxvY2s7IHdoaXRlLXNwYWNlOiBub3dyYXA7Ij48c3BhbiBjbGFzcz0ibm9kZUxhYmVsIj48L3NwYW4+PC9kaXY+PC9mb3JlaWduT2JqZWN0Pjxmb3JlaWduT2JqZWN0IGNsYXNzPSJjbGFzc1RpdGxlIiB3aWR0aD0iNjAuNjEyNDk5MjM3MDYwNTUiIGhlaWdodD0iMTguMzk5OTk5NjE4NTMwMjczIiB0cmFuc2Zvcm09InRyYW5zbGF0ZSggLTMwLjMwNjI0OTYxODUzMDI3MywgLTIyNC44MDAwMDQ5NTkxMDY0NSkiPjxkaXYgeG1sbnM9Imh0dHA6Ly93d3cudzMub3JnLzE5OTkveGh0bWwiIHN0eWxlPSJkaXNwbGF5OiBpbmxpbmUtYmxvY2s7IHdoaXRlLXNwYWNlOiBub3dyYXA7Ij48c3BhbiBjbGFzcz0ibm9kZUxhYmVsIj5DaGFubmVsPC9zcGFuPjwvZGl2PjwvZm9yZWlnbk9iamVjdD48Zm9yZWlnbk9iamVjdCB3aWR0aD0iMTI2LjYxMjUwMzA1MTc1NzgxIiBoZWlnaHQ9IjE4LjM5OTk5OTYxODUzMDI3MyIgdHJhbnNmb3JtPSJ0cmFuc2xhdGUoIC0yMDcuMjE4NzUsIC0xOTAuNDAwMDA1MzQwNTc2MTcpIj48ZGl2IHhtbG5zPSJodHRwOi8vd3d3LnczLm9yZy8xOTk5L3hodG1sIiBzdHlsZT0iZGlzcGxheTogaW5saW5lLWJsb2NrOyB3aGl0ZS1zcGFjZTogbm93cmFwOyI+PHNwYW4gY2xhc3M9Im5vZGVMYWJlbCI+LSBFdmVudExvb3AqIGxvb3A8L3NwYW4+PC9kaXY+PC9mb3JlaWduT2JqZWN0Pjxmb3JlaWduT2JqZWN0IHdpZHRoPSI1MCIgaGVpZ2h0PSIxOC4zOTk5OTk2MTg1MzAyNzMiIHRyYW5zZm9ybT0idHJhbnNsYXRlKCAtMjA3LjIxODc1LCAtMTY4LjAwMDAwNTcyMjA0NTkpIj48ZGl2IHhtbG5zPSJodHRwOi8vd3d3LnczLm9yZy8xOTk5L3hodG1sIiBzdHlsZT0iZGlzcGxheTogaW5saW5lLWJsb2NrOyB3aGl0ZS1zcGFjZTogbm93cmFwOyI+PHNwYW4gY2xhc3M9Im5vZGVMYWJlbCI+LSBpbnQgZmQ8L3NwYW4+PC9kaXY+PC9mb3JlaWduT2JqZWN0Pjxmb3JlaWduT2JqZWN0IHdpZHRoPSIxMjIuMjc1MDAxNTI1ODc4OSIgaGVpZ2h0PSIxOC4zOTk5OTk2MTg1MzAyNzMiIHRyYW5zZm9ybT0idHJhbnNsYXRlKCAtMjA3LjIxODc1LCAtMTQ1LjYwMDAwNjEwMzUxNTYyKSI+PGRpdiB4bWxucz0iaHR0cDovL3d3dy53My5vcmcvMTk5OS94aHRtbCIgc3R5bGU9ImRpc3BsYXk6IGlubGluZS1ibG9jazsgd2hpdGUtc3BhY2U6IG5vd3JhcDsiPjxzcGFuIGNsYXNzPSJub2RlTGFiZWwiPi0gdWludDMyX3QgZXZlbnRzPC9zcGFuPjwvZGl2PjwvZm9yZWlnbk9iamVjdD48Zm9yZWlnbk9iamVjdCB3aWR0aD0iMTI4LjUiIGhlaWdodD0iMTguMzk5OTk5NjE4NTMwMjczIiB0cmFuc2Zvcm09InRyYW5zbGF0ZSggLTIwNy4yMTg3NSwgLTEyMy4yMDAwMDY0ODQ5ODUzNSkiPjxkaXYgeG1sbnM9Imh0dHA6Ly93d3cudzMub3JnLzE5OTkveGh0bWwiIHN0eWxlPSJkaXNwbGF5OiBpbmxpbmUtYmxvY2s7IHdoaXRlLXNwYWNlOiBub3dyYXA7Ij48c3BhbiBjbGFzcz0ibm9kZUxhYmVsIj4tIHVpbnQzMl90IHJldmVudHM8L3NwYW4+PC9kaXY+PC9mb3JlaWduT2JqZWN0Pjxmb3JlaWduT2JqZWN0IHdpZHRoPSI5NS4xMzc1MDQ1Nzc2MzY3MiIgaGVpZ2h0PSIxOC4zOTk5OTk2MTg1MzAyNzMiIHRyYW5zZm9ybT0idHJhbnNsYXRlKCAtMjA3LjIxODc1LCAtMTAwLjgwMDAwNjg2NjQ1NTA4KSI+PGRpdiB4bWxucz0iaHR0cDovL3d3dy53My5vcmcvMTk5OS94aHRtbCIgc3R5bGU9ImRpc3BsYXk6IGlubGluZS1ibG9jazsgd2hpdGUtc3BhY2U6IG5vd3JhcDsiPjxzcGFuIGNsYXNzPSJub2RlTGFiZWwiPi0gYm9vbCBpbkVwb2xsPC9zcGFuPjwvZGl2PjwvZm9yZWlnbk9iamVjdD48Zm9yZWlnbk9iamVjdCB3aWR0aD0iMTY3LjYzNzQ5Njk0ODI0MjIiIGhlaWdodD0iMTguMzk5OTk5NjE4NTMwMjczIiB0cmFuc2Zvcm09InRyYW5zbGF0ZSggLTIwNy4yMTg3NSwgLTY2LjQwMDAwNzI0NzkyNDgpIj48ZGl2IHhtbG5zPSJodHRwOi8vd3d3LnczLm9yZy8xOTk5L3hodG1sIiBzdHlsZT0iZGlzcGxheTogaW5saW5lLWJsb2NrOyB3aGl0ZS1zcGFjZTogbm93cmFwOyI+PHNwYW4gY2xhc3M9Im5vZGVMYWJlbCI+LSBzdGQ6OmZ1bmN0aW9uIGNhbGxiYWNrPC9zcGFuPjwvZGl2PjwvZm9yZWlnbk9iamVjdD48Zm9yZWlnbk9iamVjdCB3aWR0aD0iMzY2LjY4NzUiIGhlaWdodD0iMjAuODAwMDAxMTQ0NDA5MTgiIHRyYW5zZm9ybT0idHJhbnNsYXRlKCAtMjA3LjIxODc1LCAtNDQuMDAwMDA3NjI5Mzk0NTMpIj48ZGl2IHhtbG5zPSJodHRwOi8vd3d3LnczLm9yZy8xOTk5L3hodG1sIiBzdHlsZT0iZGlzcGxheTogaW5saW5lLWJsb2NrOyB3aGl0ZS1zcGFjZTogbm93cmFwOyI+PHNwYW4gY2xhc3M9Im5vZGVMYWJlbCI+K0NoYW5uZWwoRXZlbnRMb29wKiBfbG9vcCwgaW50IF9mZCkgOiA6IOWIneWni+WMlumikemBkzwvc3Bhbj48L2Rpdj48L2ZvcmVpZ25PYmplY3Q+PGZvcmVpZ25PYmplY3Qgd2lkdGg9IjIyNC40MDAwMDkxNTUyNzM0NCIgaGVpZ2h0PSIyMC44MDAwMDExNDQ0MDkxOCIgdHJhbnNmb3JtPSJ0cmFuc2xhdGUoIC0yMDcuMjE4NzUsIC0yMS42MDAwMDgwMTA4NjQyNTgpIj48ZGl2IHhtbG5zPSJodHRwOi8vd3d3LnczLm9yZy8xOTk5L3hodG1sIiBzdHlsZT0iZGlzcGxheTogaW5saW5lLWJsb2NrOyB3aGl0ZS1zcGFjZTogbm93cmFwOyI+PHNwYW4gY2xhc3M9Im5vZGVMYWJlbCI+K35DaGFubmVsKCkgOiA6IOWFs+mXreaWh+S7tuaPj+i/sOespjwvc3Bhbj48L2Rpdj48L2ZvcmVpZ25PYmplY3Q+PGZvcmVpZ25PYmplY3Qgd2lkdGg9IjE5OC44MjQ5OTY5NDgyNDIyIiBoZWlnaHQ9IjIwLjgwMDAwMTE0NDQwOTE4IiB0cmFuc2Zvcm09InRyYW5zbGF0ZSggLTIwNy4yMTg3NSwgMC43OTk5OTE2MDc2NjYwMTU2KSI+PGRpdiB4bWxucz0iaHR0cDovL3d3dy53My5vcmcvMTk5OS94aHRtbCIgc3R5bGU9ImRpc3BsYXk6IGlubGluZS1ibG9jazsgd2hpdGUtc3BhY2U6IG5vd3JhcDsiPjxzcGFuIGNsYXNzPSJub2RlTGFiZWwiPitoYW5kbGVFdmVudCgpIDogOiDlpITnkIbkuovku7Y8L3NwYW4+PC9kaXY+PC9mb3JlaWduT2JqZWN0Pjxmb3JlaWduT2JqZWN0IHdpZHRoPSIyMzAuNjM3NDk2OTQ4MjQyMiIgaGVpZ2h0PSIyMC44MDAwMDExNDQ0MDkxOCIgdHJhbnNmb3JtPSJ0cmFuc2xhdGUoIC0yMDcuMjE4NzUsIDIzLjE5OTk5MTIyNjE5NjI5KSI+PGRpdiB4bWxucz0iaHR0cDovL3d3dy53My5vcmcvMTk5OS94aHRtbCIgc3R5bGU9ImRpc3BsYXk6IGlubGluZS1ibG9jazsgd2hpdGUtc3BhY2U6IG5vd3JhcDsiPjxzcGFuIGNsYXNzPSJub2RlTGFiZWwiPitlbmFibGVSZWFkaW5nKCkgOiA6IOWQr+eUqOivu+S6i+S7tjwvc3Bhbj48L2Rpdj48L2ZvcmVpZ25PYmplY3Q+PGZvcmVpZ25PYmplY3Qgd2lkdGg9IjIyMy4yMzc1MDMwNTE3NTc4IiBoZWlnaHQ9IjIwLjgwMDAwMTE0NDQwOTE4IiB0cmFuc2Zvcm09InRyYW5zbGF0ZSggLTIwNy4yMTg3NSwgNDUuNTk5OTkwODQ0NzI2NTYpIj48ZGl2IHhtbG5zPSJodHRwOi8vd3d3LnczLm9yZy8xOTk5L3hodG1sIiBzdHlsZT0iZGlzcGxheTogaW5saW5lLWJsb2NrOyB3aGl0ZS1zcGFjZTogbm93cmFwOyI+PHNwYW4gY2xhc3M9Im5vZGVMYWJlbCI+K2ludCBnZXRGZCgpIDogOiDojrflj5bmlofku7bmj4/ov7DnrKY8L3NwYW4+PC9kaXY+PC9mb3JlaWduT2JqZWN0Pjxmb3JlaWduT2JqZWN0IHdpZHRoPSIyOTIuODc1IiBoZWlnaHQ9IjIwLjgwMDAwMTE0NDQwOTE4IiB0cmFuc2Zvcm09InRyYW5zbGF0ZSggLTIwNy4yMTg3NSwgNjcuOTk5OTkwNDYzMjU2ODQpIj48ZGl2IHhtbG5zPSJodHRwOi8vd3d3LnczLm9yZy8xOTk5L3hodG1sIiBzdHlsZT0iZGlzcGxheTogaW5saW5lLWJsb2NrOyB3aGl0ZS1zcGFjZTogbm93cmFwOyI+PHNwYW4gY2xhc3M9Im5vZGVMYWJlbCI+K3VpbnQzMl90IGdldEV2ZW50cygpIDogOiDojrflj5bms6jlhoznmoTkuovku7Y8L3NwYW4+PC9kaXY+PC9mb3JlaWduT2JqZWN0Pjxmb3JlaWduT2JqZWN0IHdpZHRoPSIzMDEuNzAwMDEyMjA3MDMxMjUiIGhlaWdodD0iMjAuODAwMDAxMTQ0NDA5MTgiIHRyYW5zZm9ybT0idHJhbnNsYXRlKCAtMjA3LjIxODc1LCA5MC4zOTk5OTAwODE3ODcxMSkiPjxkaXYgeG1sbnM9Imh0dHA6Ly93d3cudzMub3JnLzE5OTkveGh0bWwiIHN0eWxlPSJkaXNwbGF5OiBpbmxpbmUtYmxvY2s7IHdoaXRlLXNwYWNlOiBub3dyYXA7Ij48c3BhbiBjbGFzcz0ibm9kZUxhYmVsIj4rdWludDMyX3QgZ2V0UmV2ZW50cygpIDogOiDojrflj5bov5Tlm57nmoTkuovku7Y8L3NwYW4+PC9kaXY+PC9mb3JlaWduT2JqZWN0Pjxmb3JlaWduT2JqZWN0IHdpZHRoPSIyODUuNDUwMDEyMjA3MDMxMjUiIGhlaWdodD0iMjAuODAwMDAxMTQ0NDA5MTgiIHRyYW5zZm9ybT0idHJhbnNsYXRlKCAtMjA3LjIxODc1LCAxMTIuNzk5OTg5NzAwMzE3MzgpIj48ZGl2IHhtbG5zPSJodHRwOi8vd3d3LnczLm9yZy8xOTk5L3hodG1sIiBzdHlsZT0iZGlzcGxheTogaW5saW5lLWJsb2NrOyB3aGl0ZS1zcGFjZTogbm93cmFwOyI+PHNwYW4gY2xhc3M9Im5vZGVMYWJlbCI+K2Jvb2wgZ2V0SW5FcG9sbCgpIDogOiDmo4Dmn6XmmK/lkKblnKhlcG9sbOS4rTwvc3Bhbj48L2Rpdj48L2ZvcmVpZ25PYmplY3Q+PGZvcmVpZ25PYmplY3Qgd2lkdGg9IjI4Mi45ODc1MTgzMTA1NDY5IiBoZWlnaHQ9IjIwLjgwMDAwMTE0NDQwOTE4IiB0cmFuc2Zvcm09InRyYW5zbGF0ZSggLTIwNy4yMTg3NSwgMTM1LjE5OTk4OTMxODg0NzY2KSI+PGRpdiB4bWxucz0iaHR0cDovL3d3dy53My5vcmcvMTk5OS94aHRtbCIgc3R5bGU9ImRpc3BsYXk6IGlubGluZS1ibG9jazsgd2hpdGUtc3BhY2U6IG5vd3JhcDsiPjxzcGFuIGNsYXNzPSJub2RlTGFiZWwiPit2b2lkIHNldEluRXBvbGwoKSA6IDog5qCH6K6w5Li65bey5Yqg5YWlZXBvbGw8L3NwYW4+PC9kaXY+PC9mb3JlaWduT2JqZWN0Pjxmb3JlaWduT2JqZWN0IHdpZHRoPSIzNTkuODEyNSIgaGVpZ2h0PSIyMC44MDAwMDExNDQ0MDkxOCIgdHJhbnNmb3JtPSJ0cmFuc2xhdGUoIC0yMDcuMjE4NzUsIDE1Ny41OTk5ODg5MzczNzc5MykiPjxkaXYgeG1sbnM9Imh0dHA6Ly93d3cudzMub3JnLzE5OTkveGh0bWwiIHN0eWxlPSJkaXNwbGF5OiBpbmxpbmUtYmxvY2s7IHdoaXRlLXNwYWNlOiBub3dyYXA7Ij48c3BhbiBjbGFzcz0ibm9kZUxhYmVsIj4rdm9pZCBzZXRSZXZlbnRzKHVpbnQzMl90IF9ldikgOiA6IOiuvue9rui/lOWbnueahOS6i+S7tjwvc3Bhbj48L2Rpdj48L2ZvcmVpZ25PYmplY3Q+PGZvcmVpZ25PYmplY3Qgd2lkdGg9IjQxNC40Mzc1IiBoZWlnaHQ9IjIwLjgwMDAwMTE0NDQwOTE4IiB0cmFuc2Zvcm09InRyYW5zbGF0ZSggLTIwNy4yMTg3NSwgMTc5Ljk5OTk4ODU1NTkwODIpIj48ZGl2IHhtbG5zPSJodHRwOi8vd3d3LnczLm9yZy8xOTk5L3hodG1sIiBzdHlsZT0iZGlzcGxheTogaW5saW5lLWJsb2NrOyB3aGl0ZS1zcGFjZTogbm93cmFwOyI+PHNwYW4gY2xhc3M9Im5vZGVMYWJlbCI+K3ZvaWQgc2V0Q2FsbGJhY2soc3RkOjpmdW5jdGlvbiBfY2IpIDogOiDorr7nva7kuovku7blm57osIPlh73mlbA8L3NwYW4+PC9kaXY+PC9mb3JlaWduT2JqZWN0PjwvZz48L2c+PGcgY2xhc3M9Im5vZGUgZGVmYXVsdCIgaWQ9ImNsYXNzaWQtRXBvbGwtMTEiIHRyYW5zZm9ybT0idHJhbnNsYXRlKDk2Ny4wMjE4OTYzNjIzMDQ3LCAxNTc1LjEwMDAxMzczMjkxMDIpIj48cmVjdCBjbGFzcz0ib3V0ZXIgdGl0bGUtc3RhdGUiIHg9Ii0yNjkuODg3NTEyMjA3MDMxMjUiIHk9Ii0xMDAuNzAwMDAxNzE2NjEzNzciIHdpZHRoPSI1MzkuNzc1MDI0NDE0MDYyNSIgaGVpZ2h0PSIyMDEuNDAwMDAzNDMzMjI3NTQiLz48bGluZSBjbGFzcz0iZGl2aWRlciIgeDE9Ii0yNjkuODg3NTEyMjA3MDMxMjUiIHgyPSIyNjkuODg3NTEyMjA3MDMxMjUiIHkxPSItNzAuMzAwMDAyMDk4MDgzNSIgeTI9Ii03MC4zMDAwMDIwOTgwODM1Ii8+PGxpbmUgY2xhc3M9ImRpdmlkZXIiIHgxPSItMjY5Ljg4NzUxMjIwNzAzMTI1IiB4Mj0iMjY5Ljg4NzUxMjIwNzAzMTI1IiB5MT0iLTkuNTAwMDAyODYxMDIyOTUiIHkyPSItOS41MDAwMDI4NjEwMjI5NSIvPjxnIGNsYXNzPSJsYWJlbCI+PGZvcmVpZ25PYmplY3Qgd2lkdGg9IjAiIGhlaWdodD0iMCI+PGRpdiB4bWxucz0iaHR0cDovL3d3dy53My5vcmcvMTk5OS94aHRtbCIgc3R5bGU9ImRpc3BsYXk6IGlubGluZS1ibG9jazsgd2hpdGUtc3BhY2U6IG5vd3JhcDsiPjxzcGFuIGNsYXNzPSJub2RlTGFiZWwiPjwvc3Bhbj48L2Rpdj48L2ZvcmVpZ25PYmplY3Q+PGZvcmVpZ25PYmplY3QgY2xhc3M9ImNsYXNzVGl0bGUiIHdpZHRoPSIzNi45MjQ5OTkyMzcwNjA1NSIgaGVpZ2h0PSIxOC4zOTk5OTk2MTg1MzAyNzMiIHRyYW5zZm9ybT0idHJhbnNsYXRlKCAtMTguNDYyNDk5NjE4NTMwMjczLCAtOTMuMjAwMDAxNzE2NjEzNzcpIj48ZGl2IHhtbG5zPSJodHRwOi8vd3d3LnczLm9yZy8xOTk5L3hodG1sIiBzdHlsZT0iZGlzcGxheTogaW5saW5lLWJsb2NrOyB3aGl0ZS1zcGFjZTogbm93cmFwOyI+PHNwYW4gY2xhc3M9Im5vZGVMYWJlbCI+RXBvbGw8L3NwYW4+PC9kaXY+PC9mb3JlaWduT2JqZWN0Pjxmb3JlaWduT2JqZWN0IHdpZHRoPSI2Ny42Mzc1MDQ1Nzc2MzY3MiIgaGVpZ2h0PSIxOC4zOTk5OTk2MTg1MzAyNzMiIHRyYW5zZm9ybT0idHJhbnNsYXRlKCAtMjYyLjM4NzUxMjIwNzAzMTI1LCAtNTguODAwMDAyMDk4MDgzNDk2KSI+PGRpdiB4bWxucz0iaHR0cDovL3d3dy53My5vcmcvMTk5OS94aHRtbCIgc3R5bGU9ImRpc3BsYXk6IGlubGluZS1ibG9jazsgd2hpdGUtc3BhY2U6IG5vd3JhcDsiPjxzcGFuIGNsYXNzPSJub2RlTGFiZWwiPi0gaW50IGVwZmQ8L3NwYW4+PC9kaXY+PC9mb3JlaWduT2JqZWN0Pjxmb3JlaWduT2JqZWN0IHdpZHRoPSIxNTIuNjc1MDAzMDUxNzU3OCIgaGVpZ2h0PSIxOC4zOTk5OTk2MTg1MzAyNzMiIHRyYW5zZm9ybT0idHJhbnNsYXRlKCAtMjYyLjM4NzUxMjIwNzAzMTI1LCAtMzYuNDAwMDAyNDc5NTUzMjIpIj48ZGl2IHhtbG5zPSJodHRwOi8vd3d3LnczLm9yZy8xOTk5L3hodG1sIiBzdHlsZT0iZGlzcGxheTogaW5saW5lLWJsb2NrOyB3aGl0ZS1zcGFjZTogbm93cmFwOyI+PHNwYW4gY2xhc3M9Im5vZGVMYWJlbCI+LSBlcG9sbF9ldmVudCogZXZlbnRzPC9zcGFuPjwvZGl2PjwvZm9yZWlnbk9iamVjdD48Zm9yZWlnbk9iamVjdCB3aWR0aD0iMTgxLjUyNTAwOTE1NTI3MzQ0IiBoZWlnaHQ9IjIwLjgwMDAwMTE0NDQwOTE4IiB0cmFuc2Zvcm09InRyYW5zbGF0ZSggLTI2Mi4zODc1MTIyMDcwMzEyNSwgLTIuMDAwMDAyODYxMDIyOTQ5KSI+PGRpdiB4bWxucz0iaHR0cDovL3d3dy53My5vcmcvMTk5OS94aHRtbCIgc3R5bGU9ImRpc3BsYXk6IGlubGluZS1ibG9jazsgd2hpdGUtc3BhY2U6IG5vd3JhcDsiPjxzcGFuIGNsYXNzPSJub2RlTGFiZWwiPitFcG9sbCgpIDogOiDliJvlu7plcG9sbOWunuS+izwvc3Bhbj48L2Rpdj48L2ZvcmVpZ25PYmplY3Q+PGZvcmVpZ25PYmplY3Qgd2lkdGg9IjE4OS45MjUwMDMwNTE3NTc4IiBoZWlnaHQ9IjIwLjgwMDAwMTE0NDQwOTE4IiB0cmFuc2Zvcm09InRyYW5zbGF0ZSggLTI2Mi4zODc1MTIyMDcwMzEyNSwgMjAuMzk5OTk2NzU3NTA3MzI0KSI+PGRpdiB4bWxucz0iaHR0cDovL3d3dy53My5vcmcvMTk5OS94aHRtbCIgc3R5bGU9ImRpc3BsYXk6IGlubGluZS1ibG9jazsgd2hpdGUtc3BhY2U6IG5vd3JhcDsiPjxzcGFuIGNsYXNzPSJub2RlTGFiZWwiPit+RXBvbGwoKSA6IDog5YWz6ZetZXBvbGzlrp7kvos8L3NwYW4+PC9kaXY+PC9mb3JlaWduT2JqZWN0Pjxmb3JlaWduT2JqZWN0IHdpZHRoPSI0MzAuMjg3NTA2MTAzNTE1NiIgaGVpZ2h0PSIyMC44MDAwMDExNDQ0MDkxOCIgdHJhbnNmb3JtPSJ0cmFuc2xhdGUoIC0yNjIuMzg3NTEyMjA3MDMxMjUsIDQyLjc5OTk5NjM3NjAzNzYpIj48ZGl2IHhtbG5zPSJodHRwOi8vd3d3LnczLm9yZy8xOTk5L3hodG1sIiBzdHlsZT0iZGlzcGxheTogaW5saW5lLWJsb2NrOyB3aGl0ZS1zcGFjZTogbm93cmFwOyI+PHNwYW4gY2xhc3M9Im5vZGVMYWJlbCI+K3N0ZDo6dmVjdG9yIHBvbGwoaW50IHRpbWVvdXQpIDogOiDnm5HlkKzkuovku7blubbov5Tlm57mtLvliqjnmoTpopHpgZM8L3NwYW4+PC9kaXY+PC9mb3JlaWduT2JqZWN0Pjxmb3JlaWduT2JqZWN0IHdpZHRoPSI1MjQuNzc1MDI0NDE0MDYyNSIgaGVpZ2h0PSIyMC44MDAwMDExNDQ0MDkxOCIgdHJhbnNmb3JtPSJ0cmFuc2xhdGUoIC0yNjIuMzg3NTEyMjA3MDMxMjUsIDY1LjE5OTk5NTk5NDU2Nzg3KSI+PGRpdiB4bWxucz0iaHR0cDovL3d3dy53My5vcmcvMTk5OS94aHRtbCIgc3R5bGU9ImRpc3BsYXk6IGlubGluZS1ibG9jazsgd2hpdGUtc3BhY2U6IG5vd3JhcDsiPjxzcGFuIGNsYXNzPSJub2RlTGFiZWwiPit2b2lkIHVwZGF0ZUNoYW5uZWwoQ2hhbm5lbCogY2hhbm5lbCkgOiA6IOabtOaWsOmikemBk+WcqGVwb2xs5Lit55qE5rOo5YaM54q25oCBPC9zcGFuPjwvZGl2PjwvZm9yZWlnbk9iamVjdD48L2c+PC9nPjxnIGNsYXNzPSJub2RlIGRlZmF1bHQiIGlkPSJjbGFzc2lkLUV2ZW50TG9vcC0xMiIgdHJhbnNmb3JtPSJ0cmFuc2xhdGUoODUzLjMyODE0Nzg4ODE4MzYsIDEyNzkuMzAwMDEyNTg4NTAxKSI+PHJlY3QgY2xhc3M9Im91dGVyIHRpdGxlLXN0YXRlIiB4PSItMTc2LjM4NzQ5Njk0ODI0MjIiIHk9Ii0xMDAuNzAwMDAxNzE2NjEzNzciIHdpZHRoPSIzNTIuNzc0OTkzODk2NDg0NCIgaGVpZ2h0PSIyMDEuNDAwMDAzNDMzMjI3NTQiLz48bGluZSBjbGFzcz0iZGl2aWRlciIgeDE9Ii0xNzYuMzg3NDk2OTQ4MjQyMiIgeDI9IjE3Ni4zODc0OTY5NDgyNDIyIiB5MT0iLTcwLjMwMDAwMjA5ODA4MzUiIHkyPSItNzAuMzAwMDAyMDk4MDgzNSIvPjxsaW5lIGNsYXNzPSJkaXZpZGVyIiB4MT0iLTE3Ni4zODc0OTY5NDgyNDIyIiB4Mj0iMTc2LjM4NzQ5Njk0ODI0MjIiIHkxPSItOS41MDAwMDI4NjEwMjI5NSIgeTI9Ii05LjUwMDAwMjg2MTAyMjk1Ii8+PGcgY2xhc3M9ImxhYmVsIj48Zm9yZWlnbk9iamVjdCB3aWR0aD0iMCIgaGVpZ2h0PSIwIj48ZGl2IHhtbG5zPSJodHRwOi8vd3d3LnczLm9yZy8xOTk5L3hodG1sIiBzdHlsZT0iZGlzcGxheTogaW5saW5lLWJsb2NrOyB3aGl0ZS1zcGFjZTogbm93cmFwOyI+PHNwYW4gY2xhc3M9Im5vZGVMYWJlbCI+PC9zcGFuPjwvZGl2PjwvZm9yZWlnbk9iamVjdD48Zm9yZWlnbk9iamVjdCBjbGFzcz0iY2xhc3NUaXRsZSIgd2lkdGg9Ijc4LjgwMDAwMzA1MTc1NzgxIiBoZWlnaHQ9IjE4LjM5OTk5OTYxODUzMDI3MyIgdHJhbnNmb3JtPSJ0cmFuc2xhdGUoIC0zOS40MDAwMDE1MjU4Nzg5MDYsIC05My4yMDAwMDE3MTY2MTM3NykiPjxkaXYgeG1sbnM9Imh0dHA6Ly93d3cudzMub3JnLzE5OTkveGh0bWwiIHN0eWxlPSJkaXNwbGF5OiBpbmxpbmUtYmxvY2s7IHdoaXRlLXNwYWNlOiBub3dyYXA7Ij48c3BhbiBjbGFzcz0ibm9kZUxhYmVsIj5FdmVudExvb3A8L3NwYW4+PC9kaXY+PC9mb3JlaWduT2JqZWN0Pjxmb3JlaWduT2JqZWN0IHdpZHRoPSI3NC41NTAwMDMwNTE3NTc4MSIgaGVpZ2h0PSIxOC4zOTk5OTk2MTg1MzAyNzMiIHRyYW5zZm9ybT0idHJhbnNsYXRlKCAtMTY4Ljg4NzQ5Njk0ODI0MjIsIC01OC44MDAwMDIwOTgwODM0OTYpIj48ZGl2IHhtbG5zPSJodHRwOi8vd3d3LnczLm9yZy8xOTk5L3hodG1sIiBzdHlsZT0iZGlzcGxheTogaW5saW5lLWJsb2NrOyB3aGl0ZS1zcGFjZTogbm93cmFwOyI+PHNwYW4gY2xhc3M9Im5vZGVMYWJlbCI+LSBFcG9sbCogZXA8L3NwYW4+PC9kaXY+PC9mb3JlaWduT2JqZWN0Pjxmb3JlaWduT2JqZWN0IHdpZHRoPSI3NC44ODc1MDQ1Nzc2MzY3MiIgaGVpZ2h0PSIxOC4zOTk5OTk2MTg1MzAyNzMiIHRyYW5zZm9ybT0idHJhbnNsYXRlKCAtMTY4Ljg4NzQ5Njk0ODI0MjIsIC0zNi40MDAwMDI0Nzk1NTMyMikiPjxkaXYgeG1sbnM9Imh0dHA6Ly93d3cudzMub3JnLzE5OTkveGh0bWwiIHN0eWxlPSJkaXNwbGF5OiBpbmxpbmUtYmxvY2s7IHdoaXRlLXNwYWNlOiBub3dyYXA7Ij48c3BhbiBjbGFzcz0ibm9kZUxhYmVsIj4tIGJvb2wgcXVpdDwvc3Bhbj48L2Rpdj48L2ZvcmVpZ25PYmplY3Q+PGZvcmVpZ25PYmplY3Qgd2lkdGg9IjIzMi43NjI0OTY5NDgyNDIyIiBoZWlnaHQ9IjIwLjgwMDAwMTE0NDQwOTE4IiB0cmFuc2Zvcm09InRyYW5zbGF0ZSggLTE2OC44ODc0OTY5NDgyNDIyLCAtMi4wMDAwMDI4NjEwMjI5NDkpIj48ZGl2IHhtbG5zPSJodHRwOi8vd3d3LnczLm9yZy8xOTk5L3hodG1sIiBzdHlsZT0iZGlzcGxheTogaW5saW5lLWJsb2NrOyB3aGl0ZS1zcGFjZTogbm93cmFwOyI+PHNwYW4gY2xhc3M9Im5vZGVMYWJlbCI+K0V2ZW50TG9vcCgpIDogOiDliJ3lp4vljJbkuovku7blvqrnjq88L3NwYW4+PC9kaXY+PC9mb3JlaWduT2JqZWN0Pjxmb3JlaWduT2JqZWN0IHdpZHRoPSIxOTMuMTUwMDA5MTU1MjczNDQiIGhlaWdodD0iMjAuODAwMDAxMTQ0NDA5MTgiIHRyYW5zZm9ybT0idHJhbnNsYXRlKCAtMTY4Ljg4NzQ5Njk0ODI0MjIsIDIwLjM5OTk5Njc1NzUwNzMyNCkiPjxkaXYgeG1sbnM9Imh0dHA6Ly93d3cudzMub3JnLzE5OTkveGh0bWwiIHN0eWxlPSJkaXNwbGF5OiBpbmxpbmUtYmxvY2s7IHdoaXRlLXNwYWNlOiBub3dyYXA7Ij48c3BhbiBjbGFzcz0ibm9kZUxhYmVsIj4rfkV2ZW50TG9vcCgpIDogOiDmuIXnkIbotYTmupA8L3NwYW4+PC9kaXY+PC9mb3JlaWduT2JqZWN0Pjxmb3JlaWduT2JqZWN0IHdpZHRoPSIyMDcuODc1IiBoZWlnaHQ9IjIwLjgwMDAwMTE0NDQwOTE4IiB0cmFuc2Zvcm09InRyYW5zbGF0ZSggLTE2OC44ODc0OTY5NDgyNDIyLCA0Mi43OTk5OTYzNzYwMzc2KSI+PGRpdiB4bWxucz0iaHR0cDovL3d3dy53My5vcmcvMTk5OS94aHRtbCIgc3R5bGU9ImRpc3BsYXk6IGlubGluZS1ibG9jazsgd2hpdGUtc3BhY2U6IG5vd3JhcDsiPjxzcGFuIGNsYXNzPSJub2RlTGFiZWwiPit2b2lkIGxvb3AoKSA6IDog6L+Q6KGM5LqL5Lu25b6q546vPC9zcGFuPjwvZGl2PjwvZm9yZWlnbk9iamVjdD48Zm9yZWlnbk9iamVjdCB3aWR0aD0iMzM3Ljc3NDk5Mzg5NjQ4NDQiIGhlaWdodD0iMjAuODAwMDAxMTQ0NDA5MTgiIHRyYW5zZm9ybT0idHJhbnNsYXRlKCAtMTY4Ljg4NzQ5Njk0ODI0MjIsIDY1LjE5OTk5NTk5NDU2Nzg3KSI+PGRpdiB4bWxucz0iaHR0cDovL3d3dy53My5vcmcvMTk5OS94aHRtbCIgc3R5bGU9ImRpc3BsYXk6IGlubGluZS1ibG9jazsgd2hpdGUtc3BhY2U6IG5vd3JhcDsiPjxzcGFuIGNsYXNzPSJub2RlTGFiZWwiPit2b2lkIHVwZGF0ZUNoYW5uZWwoQ2hhbm5lbCogY2gpIDogOiDmm7TmlrDpopHpgZM8L3NwYW4+PC9kaXY+PC9mb3JlaWduT2JqZWN0PjwvZz48L2c+PGcgY2xhc3M9Im5vZGUgZGVmYXVsdCIgaWQ9ImNsYXNzaWQtQWNjZXB0b3ItMTMiIHRyYW5zZm9ybT0idHJhbnNsYXRlKDI5Ni4wNzUwMTIyMDcwMzEyNSwgNDI1LjcwMDAwMjY3MDI4ODEpIj48cmVjdCBjbGFzcz0ib3V0ZXIgdGl0bGUtc3RhdGUiIHg9Ii0yNzYuODYyNTE4MzEwNTQ2OSIgeT0iLTEyMy4xMDAwMDEzMzUxNDQwNCIgd2lkdGg9IjU1My43MjUwMzY2MjEwOTM4IiBoZWlnaHQ9IjI0Ni4yMDAwMDI2NzAyODgxIi8+PGxpbmUgY2xhc3M9ImRpdmlkZXIiIHgxPSItMjc2Ljg2MjUxODMxMDU0NjkiIHgyPSIyNzYuODYyNTE4MzEwNTQ2OSIgeTE9Ii05Mi43MDAwMDE3MTY2MTM3NyIgeTI9Ii05Mi43MDAwMDE3MTY2MTM3NyIvPjxsaW5lIGNsYXNzPSJkaXZpZGVyIiB4MT0iLTI3Ni44NjI1MTgzMTA1NDY5IiB4Mj0iMjc2Ljg2MjUxODMxMDU0NjkiIHkxPSItOS41MDAwMDI4NjEwMjI5NSIgeTI9Ii05LjUwMDAwMjg2MTAyMjk1Ii8+PGcgY2xhc3M9ImxhYmVsIj48Zm9yZWlnbk9iamVjdCB3aWR0aD0iMCIgaGVpZ2h0PSIwIj48ZGl2IHhtbG5zPSJodHRwOi8vd3d3LnczLm9yZy8xOTk5L3hodG1sIiBzdHlsZT0iZGlzcGxheTogaW5saW5lLWJsb2NrOyB3aGl0ZS1zcGFjZTogbm93cmFwOyI+PHNwYW4gY2xhc3M9Im5vZGVMYWJlbCI+PC9zcGFuPjwvZGl2PjwvZm9yZWlnbk9iamVjdD48Zm9yZWlnbk9iamVjdCBjbGFzcz0iY2xhc3NUaXRsZSIgd2lkdGg9IjY3LjI2MjUwNDU3NzYzNjcyIiBoZWlnaHQ9IjE4LjM5OTk5OTYxODUzMDI3MyIgdHJhbnNmb3JtPSJ0cmFuc2xhdGUoIC0zMy42MzEyNTIyODg4MTgzNiwgLTExNS42MDAwMDEzMzUxNDQwNCkiPjxkaXYgeG1sbnM9Imh0dHA6Ly93d3cudzMub3JnLzE5OTkveGh0bWwiIHN0eWxlPSJkaXNwbGF5OiBpbmxpbmUtYmxvY2s7IHdoaXRlLXNwYWNlOiBub3dyYXA7Ij48c3BhbiBjbGFzcz0ibm9kZUxhYmVsIj5BY2NlcHRvcjwvc3Bhbj48L2Rpdj48L2ZvcmVpZ25PYmplY3Q+PGZvcmVpZ25PYmplY3Qgd2lkdGg9IjEyNi42MTI1MDMwNTE3NTc4MSIgaGVpZ2h0PSIxOC4zOTk5OTk2MTg1MzAyNzMiIHRyYW5zZm9ybT0idHJhbnNsYXRlKCAtMjY5LjM2MjUxODMxMDU0NjksIC04MS4yMDAwMDE3MTY2MTM3NykiPjxkaXYgeG1sbnM9Imh0dHA6Ly93d3cudzMub3JnLzE5OTkveGh0bWwiIHN0eWxlPSJkaXNwbGF5OiBpbmxpbmUtYmxvY2s7IHdoaXRlLXNwYWNlOiBub3dyYXA7Ij48c3BhbiBjbGFzcz0ibm9kZUxhYmVsIj4tIEV2ZW50TG9vcCogbG9vcDwvc3Bhbj48L2Rpdj48L2ZvcmVpZ25PYmplY3Q+PGZvcmVpZ25PYmplY3Qgd2lkdGg9Ijk5LjgwMDAwMzA1MTc1NzgxIiBoZWlnaHQ9IjE4LjM5OTk5OTYxODUzMDI3MyIgdHJhbnNmb3JtPSJ0cmFuc2xhdGUoIC0yNjkuMzYyNTE4MzEwNTQ2OSwgLTU4LjgwMDAwMjA5ODA4MzQ5NikiPjxkaXYgeG1sbnM9Imh0dHA6Ly93d3cudzMub3JnLzE5OTkveGh0bWwiIHN0eWxlPSJkaXNwbGF5OiBpbmxpbmUtYmxvY2s7IHdoaXRlLXNwYWNlOiBub3dyYXA7Ij48c3BhbiBjbGFzcz0ibm9kZUxhYmVsIj4tIFNvY2tldCogc29jazwvc3Bhbj48L2Rpdj48L2ZvcmVpZ25PYmplY3Q+PGZvcmVpZ25PYmplY3Qgd2lkdGg9IjE4NC45MjUwMDMwNTE3NTc4IiBoZWlnaHQ9IjE4LjM5OTk5OTYxODUzMDI3MyIgdHJhbnNmb3JtPSJ0cmFuc2xhdGUoIC0yNjkuMzYyNTE4MzEwNTQ2OSwgLTM2LjQwMDAwMjQ3OTU1MzIyKSI+PGRpdiB4bWxucz0iaHR0cDovL3d3dy53My5vcmcvMTk5OS94aHRtbCIgc3R5bGU9ImRpc3BsYXk6IGlubGluZS1ibG9jazsgd2hpdGUtc3BhY2U6IG5vd3JhcDsiPjxzcGFuIGNsYXNzPSJub2RlTGFiZWwiPi0gQ2hhbm5lbCogYWNjZXB0Q2hhbm5lbDwvc3Bhbj48L2Rpdj48L2ZvcmVpZ25PYmplY3Q+PGZvcmVpZ25PYmplY3Qgd2lkdGg9IjI3OS4xODc1IiBoZWlnaHQ9IjE4LjM5OTk5OTYxODUzMDI3MyIgdHJhbnNmb3JtPSJ0cmFuc2xhdGUoIC0yNjkuMzYyNTE4MzEwNTQ2OSwgLTIuMDAwMDAyODYxMDIyOTQ5KSI+PGRpdiB4bWxucz0iaHR0cDovL3d3dy53My5vcmcvMTk5OS94aHRtbCIgc3R5bGU9ImRpc3BsYXk6IGlubGluZS1ibG9jazsgd2hpdGUtc3BhY2U6IG5vd3JhcDsiPjxzcGFuIGNsYXNzPSJub2RlTGFiZWwiPi0gc3RkOjpmdW5jdGlvbiBuZXdDb25uZWN0aW9uQ2FsbGJhY2s8L3NwYW4+PC9kaXY+PC9mb3JlaWduT2JqZWN0Pjxmb3JlaWduT2JqZWN0IHdpZHRoPSI1MzguNzI1MDM2NjIxMDkzOCIgaGVpZ2h0PSIyMC44MDAwMDExNDQ0MDkxOCIgdHJhbnNmb3JtPSJ0cmFuc2xhdGUoIC0yNjkuMzYyNTE4MzEwNTQ2OSwgMjAuMzk5OTk2NzU3NTA3MzI0KSI+PGRpdiB4bWxucz0iaHR0cDovL3d3dy53My5vcmcvMTk5OS94aHRtbCIgc3R5bGU9ImRpc3BsYXk6IGlubGluZS1ibG9jazsgd2hpdGUtc3BhY2U6IG5vd3JhcDsiPjxzcGFuIGNsYXNzPSJub2RlTGFiZWwiPitBY2NlcHRvcihFdmVudExvb3AqIF9sb29wKSA6IDog5Yid5aeL5YyW55uR5ZCs5aWX5o6l5a2X5ZKM6aKR6YGT77yM6K6+572u5paw6L+e5o6l5Zue6LCDPC9zcGFuPjwvZGl2PjwvZm9yZWlnbk9iamVjdD48Zm9yZWlnbk9iamVjdCB3aWR0aD0iMTgyLjgxMjUiIGhlaWdodD0iMjAuODAwMDAxMTQ0NDA5MTgiIHRyYW5zZm9ybT0idHJhbnNsYXRlKCAtMjY5LjM2MjUxODMxMDU0NjksIDQyLjc5OTk5NjM3NjAzNzYpIj48ZGl2IHhtbG5zPSJodHRwOi8vd3d3LnczLm9yZy8xOTk5L3hodG1sIiBzdHlsZT0iZGlzcGxheTogaW5saW5lLWJsb2NrOyB3aGl0ZS1zcGFjZTogbm93cmFwOyI+PHNwYW4gY2xhc3M9Im5vZGVMYWJlbCI+K35BY2NlcHRvcigpIDogOiDmuIXnkIbotYTmupA8L3NwYW4+PC9kaXY+PC9mb3JlaWduT2JqZWN0Pjxmb3JlaWduT2JqZWN0IHdpZHRoPSI0MTguMzYyNTE4MzEwNTQ2OSIgaGVpZ2h0PSIyMC44MDAwMDExNDQ0MDkxOCIgdHJhbnNmb3JtPSJ0cmFuc2xhdGUoIC0yNjkuMzYyNTE4MzEwNTQ2OSwgNjUuMTk5OTk1OTk0NTY3ODcpIj48ZGl2IHhtbG5zPSJodHRwOi8vd3d3LnczLm9yZy8xOTk5L3hodG1sIiBzdHlsZT0iZGlzcGxheTogaW5saW5lLWJsb2NrOyB3aGl0ZS1zcGFjZTogbm93cmFwOyI+PHNwYW4gY2xhc3M9Im5vZGVMYWJlbCI+K3ZvaWQgYWNjZXB0Q29ubmVjdGlvbigpIDogOiDmjqXlj5fmlrDov57mjqXlubbliJvlu7pDb25uZWN0aW9uPC9zcGFuPjwvZGl2PjwvZm9yZWlnbk9iamVjdD48Zm9yZWlnbk9iamVjdCB3aWR0aD0iNTA5LjgwMDAxODMxMDU0NjkiIGhlaWdodD0iMjAuODAwMDAxMTQ0NDA5MTgiIHRyYW5zZm9ybT0idHJhbnNsYXRlKCAtMjY5LjM2MjUxODMxMDU0NjksIDg3LjU5OTk5NTYxMzA5ODE0KSI+PGRpdiB4bWxucz0iaHR0cDovL3d3dy53My5vcmcvMTk5OS94aHRtbCIgc3R5bGU9ImRpc3BsYXk6IGlubGluZS1ibG9jazsgd2hpdGUtc3BhY2U6IG5vd3JhcDsiPjxzcGFuIGNsYXNzPSJub2RlTGFiZWwiPit2b2lkIHNldE5ld0Nvbm5lY3Rpb25DYWxsYmFjayhzdGQ6OmZ1bmN0aW9uIF9jYikgOiA6IOiuvue9ruaWsOi/nuaOpeWbnuiwgzwvc3Bhbj48L2Rpdj48L2ZvcmVpZ25PYmplY3Q+PC9nPjwvZz48ZyBjbGFzcz0ibm9kZSBkZWZhdWx0IiBpZD0iY2xhc3NpZC1Db25uZWN0aW9uLTE0IiB0cmFuc2Zvcm09InRyYW5zbGF0ZSg5NDEuMDIxODk2MzYyMzA0NywgNDI1LjcwMDAwMjY3MDI4ODEpIj48cmVjdCBjbGFzcz0ib3V0ZXIgdGl0bGUtc3RhdGUiIHg9Ii0yOTkuMTgxMjQzODk2NDg0NCIgeT0iLTEyMy4xMDAwMDEzMzUxNDQwNCIgd2lkdGg9IjU5OC4zNjI0ODc3OTI5Njg4IiBoZWlnaHQ9IjI0Ni4yMDAwMDI2NzAyODgxIi8+PGxpbmUgY2xhc3M9ImRpdmlkZXIiIHgxPSItMjk5LjE4MTI0Mzg5NjQ4NDQiIHgyPSIyOTkuMTgxMjQzODk2NDg0NCIgeTE9Ii05Mi43MDAwMDE3MTY2MTM3NyIgeTI9Ii05Mi43MDAwMDE3MTY2MTM3NyIvPjxsaW5lIGNsYXNzPSJkaXZpZGVyIiB4MT0iLTI5OS4xODEyNDM4OTY0ODQ0IiB4Mj0iMjk5LjE4MTI0Mzg5NjQ4NDQiIHkxPSItOS41MDAwMDI4NjEwMjI5NSIgeTI9Ii05LjUwMDAwMjg2MTAyMjk1Ii8+PGcgY2xhc3M9ImxhYmVsIj48Zm9yZWlnbk9iamVjdCB3aWR0aD0iMCIgaGVpZ2h0PSIwIj48ZGl2IHhtbG5zPSJodHRwOi8vd3d3LnczLm9yZy8xOTk5L3hodG1sIiBzdHlsZT0iZGlzcGxheTogaW5saW5lLWJsb2NrOyB3aGl0ZS1zcGFjZTogbm93cmFwOyI+PHNwYW4gY2xhc3M9Im5vZGVMYWJlbCI+PC9zcGFuPjwvZGl2PjwvZm9yZWlnbk9iamVjdD48Zm9yZWlnbk9iamVjdCBjbGFzcz0iY2xhc3NUaXRsZSIgd2lkdGg9Ijg0LjczNzUwMzA1MTc1NzgxIiBoZWlnaHQ9IjE4LjM5OTk5OTYxODUzMDI3MyIgdHJhbnNmb3JtPSJ0cmFuc2xhdGUoIC00Mi4zNjg3NTE1MjU4Nzg5MDYsIC0xMTUuNjAwMDAxMzM1MTQ0MDQpIj48ZGl2IHhtbG5zPSJodHRwOi8vd3d3LnczLm9yZy8xOTk5L3hodG1sIiBzdHlsZT0iZGlzcGxheTogaW5saW5lLWJsb2NrOyB3aGl0ZS1zcGFjZTogbm93cmFwOyI+PHNwYW4gY2xhc3M9Im5vZGVMYWJlbCI+Q29ubmVjdGlvbjwvc3Bhbj48L2Rpdj48L2ZvcmVpZ25PYmplY3Q+PGZvcmVpZ25PYmplY3Qgd2lkdGg9IjEyNi42MTI1MDMwNTE3NTc4MSIgaGVpZ2h0PSIxOC4zOTk5OTk2MTg1MzAyNzMiIHRyYW5zZm9ybT0idHJhbnNsYXRlKCAtMjkxLjY4MTI0Mzg5NjQ4NDQsIC04MS4yMDAwMDE3MTY2MTM3NykiPjxkaXYgeG1sbnM9Imh0dHA6Ly93d3cudzMub3JnLzE5OTkveGh0bWwiIHN0eWxlPSJkaXNwbGF5OiBpbmxpbmUtYmxvY2s7IHdoaXRlLXNwYWNlOiBub3dyYXA7Ij48c3BhbiBjbGFzcz0ibm9kZUxhYmVsIj4tIEV2ZW50TG9vcCogbG9vcDwvc3Bhbj48L2Rpdj48L2ZvcmVpZ25PYmplY3Q+PGZvcmVpZ25PYmplY3Qgd2lkdGg9Ijk5LjgwMDAwMzA1MTc1NzgxIiBoZWlnaHQ9IjE4LjM5OTk5OTYxODUzMDI3MyIgdHJhbnNmb3JtPSJ0cmFuc2xhdGUoIC0yOTEuNjgxMjQzODk2NDg0NCwgLTU4LjgwMDAwMjA5ODA4MzQ5NikiPjxkaXYgeG1sbnM9Imh0dHA6Ly93d3cudzMub3JnLzE5OTkveGh0bWwiIHN0eWxlPSJkaXNwbGF5OiBpbmxpbmUtYmxvY2s7IHdoaXRlLXNwYWNlOiBub3dyYXA7Ij48c3BhbiBjbGFzcz0ibm9kZUxhYmVsIj4tIFNvY2tldCogc29jazwvc3Bhbj48L2Rpdj48L2ZvcmVpZ25PYmplY3Q+PGZvcmVpZ25PYmplY3Qgd2lkdGg9IjEzNS4wNTAwMDMwNTE3NTc4IiBoZWlnaHQ9IjE4LjM5OTk5OTYxODUzMDI3MyIgdHJhbnNmb3JtPSJ0cmFuc2xhdGUoIC0yOTEuNjgxMjQzODk2NDg0NCwgLTM2LjQwMDAwMjQ3OTU1MzIyKSI+PGRpdiB4bWxucz0iaHR0cDovL3d3dy53My5vcmcvMTk5OS94aHRtbCIgc3R5bGU9ImRpc3BsYXk6IGlubGluZS1ibG9jazsgd2hpdGUtc3BhY2U6IG5vd3JhcDsiPjxzcGFuIGNsYXNzPSJub2RlTGFiZWwiPi0gQ2hhbm5lbCogY2hhbm5lbDwvc3Bhbj48L2Rpdj48L2ZvcmVpZ25PYmplY3Q+PGZvcmVpZ25PYmplY3Qgd2lkdGg9IjI5NS45NjI0OTM4OTY0ODQ0IiBoZWlnaHQ9IjE4LjM5OTk5OTYxODUzMDI3MyIgdHJhbnNmb3JtPSJ0cmFuc2xhdGUoIC0yOTEuNjgxMjQzODk2NDg0NCwgLTIuMDAwMDAyODYxMDIyOTQ5KSI+PGRpdiB4bWxucz0iaHR0cDovL3d3dy53My5vcmcvMTk5OS94aHRtbCIgc3R5bGU9ImRpc3BsYXk6IGlubGluZS1ibG9jazsgd2hpdGUtc3BhY2U6IG5vd3JhcDsiPjxzcGFuIGNsYXNzPSJub2RlTGFiZWwiPi0gc3RkOjpmdW5jdGlvbiBkZWxldGVDb25uZWN0aW9uQ2FsbGJhY2s8L3NwYW4+PC9kaXY+PC9mb3JlaWduT2JqZWN0Pjxmb3JlaWduT2JqZWN0IHdpZHRoPSI1ODMuMzYyNDg3NzkyOTY4OCIgaGVpZ2h0PSIyMC44MDAwMDExNDQ0MDkxOCIgdHJhbnNmb3JtPSJ0cmFuc2xhdGUoIC0yOTEuNjgxMjQzODk2NDg0NCwgMjAuMzk5OTk2NzU3NTA3MzI0KSI+PGRpdiB4bWxucz0iaHR0cDovL3d3dy53My5vcmcvMTk5OS94aHRtbCIgc3R5bGU9ImRpc3BsYXk6IGlubGluZS1ibG9jazsgd2hpdGUtc3BhY2U6IG5vd3JhcDsiPjxzcGFuIGNsYXNzPSJub2RlTGFiZWwiPitDb25uZWN0aW9uKEV2ZW50TG9vcCogX2xvb3AsIFNvY2tldCogX3NvY2spIDogOiDliJ3lp4vljJbov57mjqXpopHpgZPvvIzorr7nva7lm57osIPlh73mlbA8L3NwYW4+PC9kaXY+PC9mb3JlaWduT2JqZWN0Pjxmb3JlaWduT2JqZWN0IHdpZHRoPSIxOTkuMjc1MDA5MTU1MjczNDQiIGhlaWdodD0iMjAuODAwMDAxMTQ0NDA5MTgiIHRyYW5zZm9ybT0idHJhbnNsYXRlKCAtMjkxLjY4MTI0Mzg5NjQ4NDQsIDQyLjc5OTk5NjM3NjAzNzYpIj48ZGl2IHhtbG5zPSJodHRwOi8vd3d3LnczLm9yZy8xOTk5L3hodG1sIiBzdHlsZT0iZGlzcGxheTogaW5saW5lLWJsb2NrOyB3aGl0ZS1zcGFjZTogbm93cmFwOyI+PHNwYW4gY2xhc3M9Im5vZGVMYWJlbCI+K35Db25uZWN0aW9uKCkgOiA6IOWFs+mXrei/nuaOpTwvc3Bhbj48L2Rpdj48L2ZvcmVpZ25PYmplY3Q+PGZvcmVpZ25PYmplY3Qgd2lkdGg9IjI5Ny4zOTk5OTM4OTY0ODQ0IiBoZWlnaHQ9IjIwLjgwMDAwMTE0NDQwOTE4IiB0cmFuc2Zvcm09InRyYW5zbGF0ZSggLTI5MS42ODEyNDM4OTY0ODQ0LCA2NS4xOTk5OTU5OTQ1Njc4NykiPjxkaXYgeG1sbnM9Imh0dHA6Ly93d3cudzMub3JnLzE5OTkveGh0bWwiIHN0eWxlPSJkaXNwbGF5OiBpbmxpbmUtYmxvY2s7IHdoaXRlLXNwYWNlOiBub3dyYXA7Ij48c3BhbiBjbGFzcz0ibm9kZUxhYmVsIj4rdm9pZCBlY2hvKGludCBzb2NrZmQpIDogOiDlm57mmL7lrqLmiLfnq6/mtojmga88L3NwYW4+PC9kaXY+PC9mb3JlaWduT2JqZWN0Pjxmb3JlaWduT2JqZWN0IHdpZHRoPSI1NDIuMDEyNTEyMjA3MDMxMiIgaGVpZ2h0PSIyMC44MDAwMDExNDQ0MDkxOCIgdHJhbnNmb3JtPSJ0cmFuc2xhdGUoIC0yOTEuNjgxMjQzODk2NDg0NCwgODcuNTk5OTk1NjEzMDk4MTQpIj48ZGl2IHhtbG5zPSJodHRwOi8vd3d3LnczLm9yZy8xOTk5L3hodG1sIiBzdHlsZT0iZGlzcGxheTogaW5saW5lLWJsb2NrOyB3aGl0ZS1zcGFjZTogbm93cmFwOyI+PHNwYW4gY2xhc3M9Im5vZGVMYWJlbCI+K3ZvaWQgc2V0RGVsZXRlQ29ubmVjdGlvbkNhbGxiYWNrKHN0ZDo6ZnVuY3Rpb24gX2NiKSA6IDog6K6+572u5Yig6Zmk6L+e5o6l5Zue6LCDPC9zcGFuPjwvZGl2PjwvZm9yZWlnbk9iamVjdD48L2c+PC9nPjxnIGNsYXNzPSJub2RlIGRlZmF1bHQiIGlkPSJjbGFzc2lkLVNlcnZlci0xNSIgdHJhbnNmb3JtPSJ0cmFuc2xhdGUoNjI4LjAwMDAxNTI1ODc4OTEsIDExOS45MDAwMDE1MjU4Nzg5KSI+PHJlY3QgY2xhc3M9Im91dGVyIHRpdGxlLXN0YXRlIiB4PSItMjUxLjc5Mzc0Njk0ODI0MjIiIHk9Ii0xMTEuOTAwMDAxNTI1ODc4OSIgd2lkdGg9IjUwMy41ODc0OTM4OTY0ODQ0IiBoZWlnaHQ9IjIyMy44MDAwMDMwNTE3NTc4Ii8+PGxpbmUgY2xhc3M9ImRpdmlkZXIiIHgxPSItMjUxLjc5Mzc0Njk0ODI0MjIiIHgyPSIyNTEuNzkzNzQ2OTQ4MjQyMiIgeTE9Ii04MS41MDAwMDE5MDczNDg2MyIgeTI9Ii04MS41MDAwMDE5MDczNDg2MyIvPjxsaW5lIGNsYXNzPSJkaXZpZGVyIiB4MT0iLTI1MS43OTM3NDY5NDgyNDIyIiB4Mj0iMjUxLjc5Mzc0Njk0ODI0MjIiIHkxPSIxLjY5OTk5Njk0ODI0MjE4NzUiIHkyPSIxLjY5OTk5Njk0ODI0MjE4NzUiLz48ZyBjbGFzcz0ibGFiZWwiPjxmb3JlaWduT2JqZWN0IHdpZHRoPSIwIiBoZWlnaHQ9IjAiPjxkaXYgeG1sbnM9Imh0dHA6Ly93d3cudzMub3JnLzE5OTkveGh0bWwiIHN0eWxlPSJkaXNwbGF5OiBpbmxpbmUtYmxvY2s7IHdoaXRlLXNwYWNlOiBub3dyYXA7Ij48c3BhbiBjbGFzcz0ibm9kZUxhYmVsIj48L3NwYW4+PC9kaXY+PC9mb3JlaWduT2JqZWN0Pjxmb3JlaWduT2JqZWN0IGNsYXNzPSJjbGFzc1RpdGxlIiB3aWR0aD0iNDguNjg3NSIgaGVpZ2h0PSIxOC4zOTk5OTk2MTg1MzAyNzMiIHRyYW5zZm9ybT0idHJhbnNsYXRlKCAtMjQuMzQzNzUsIC0xMDQuNDAwMDAxNTI1ODc4OSkiPjxkaXYgeG1sbnM9Imh0dHA6Ly93d3cudzMub3JnLzE5OTkveGh0bWwiIHN0eWxlPSJkaXNwbGF5OiBpbmxpbmUtYmxvY2s7IHdoaXRlLXNwYWNlOiBub3dyYXA7Ij48c3BhbiBjbGFzcz0ibm9kZUxhYmVsIj5TZXJ2ZXI8L3NwYW4+PC9kaXY+PC9mb3JlaWduT2JqZWN0Pjxmb3JlaWduT2JqZWN0IHdpZHRoPSIxMjYuNjEyNTAzMDUxNzU3ODEiIGhlaWdodD0iMTguMzk5OTk5NjE4NTMwMjczIiB0cmFuc2Zvcm09InRyYW5zbGF0ZSggLTI0NC4yOTM3NDY5NDgyNDIyLCAtNzAuMDAwMDAxOTA3MzQ4NjMpIj48ZGl2IHhtbG5zPSJodHRwOi8vd3d3LnczLm9yZy8xOTk5L3hodG1sIiBzdHlsZT0iZGlzcGxheTogaW5saW5lLWJsb2NrOyB3aGl0ZS1zcGFjZTogbm93cmFwOyI+PHNwYW4gY2xhc3M9Im5vZGVMYWJlbCI+LSBFdmVudExvb3AqIGxvb3A8L3NwYW4+PC9kaXY+PC9mb3JlaWduT2JqZWN0Pjxmb3JlaWduT2JqZWN0IHdpZHRoPSIxNDcuNjI1IiBoZWlnaHQ9IjE4LjM5OTk5OTYxODUzMDI3MyIgdHJhbnNmb3JtPSJ0cmFuc2xhdGUoIC0yNDQuMjkzNzQ2OTQ4MjQyMiwgLTQ3LjYwMDAwMjI4ODgxODM2KSI+PGRpdiB4bWxucz0iaHR0cDovL3d3dy53My5vcmcvMTk5OS94aHRtbCIgc3R5bGU9ImRpc3BsYXk6IGlubGluZS1ibG9jazsgd2hpdGUtc3BhY2U6IG5vd3JhcDsiPjxzcGFuIGNsYXNzPSJub2RlTGFiZWwiPi0gQWNjZXB0b3IqIGFjY2VwdG9yPC9zcGFuPjwvZGl2PjwvZm9yZWlnbk9iamVjdD48Zm9yZWlnbk9iamVjdCB3aWR0aD0iMjQ3LjEzNzQ5Njk0ODI0MjIiIGhlaWdodD0iMTguMzk5OTk5NjE4NTMwMjczIiB0cmFuc2Zvcm09InRyYW5zbGF0ZSggLTI0NC4yOTM3NDY5NDgyNDIyLCAtMjUuMjAwMDAyNjcwMjg4MDg2KSI+PGRpdiB4bWxucz0iaHR0cDovL3d3dy53My5vcmcvMTk5OS94aHRtbCIgc3R5bGU9ImRpc3BsYXk6IGlubGluZS1ibG9jazsgd2hpdGUtc3BhY2U6IG5vd3JhcDsiPjxzcGFuIGNsYXNzPSJub2RlTGFiZWwiPi0gc3RkOjp1bm9yZGVyZWRfbWFwIGNvbm5lY3Rpb25zPC9zcGFuPjwvZGl2PjwvZm9yZWlnbk9iamVjdD48Zm9yZWlnbk9iamVjdCB3aWR0aD0iNDU2LjE0OTk5Mzg5NjQ4NDQiIGhlaWdodD0iMjAuODAwMDAxMTQ0NDA5MTgiIHRyYW5zZm9ybT0idHJhbnNsYXRlKCAtMjQ0LjI5Mzc0Njk0ODI0MjIsIDkuMTk5OTk2OTQ4MjQyMTg4KSI+PGRpdiB4bWxucz0iaHR0cDovL3d3dy53My5vcmcvMTk5OS94aHRtbCIgc3R5bGU9ImRpc3BsYXk6IGlubGluZS1ibG9jazsgd2hpdGUtc3BhY2U6IG5vd3JhcDsiPjxzcGFuIGNsYXNzPSJub2RlTGFiZWwiPitTZXJ2ZXIoRXZlbnRMb29wKiBfbG9vcCkgOiA6IOWIneWni+WMlkFjY2VwdG9y5bm26K6+572u5paw6L+e5o6l5Zue6LCDPC9zcGFuPjwvZGl2PjwvZm9yZWlnbk9iamVjdD48Zm9yZWlnbk9iamVjdCB3aWR0aD0iMTY0LjE3NTAwMzA1MTc1NzgiIGhlaWdodD0iMjAuODAwMDAxMTQ0NDA5MTgiIHRyYW5zZm9ybT0idHJhbnNsYXRlKCAtMjQ0LjI5Mzc0Njk0ODI0MjIsIDMxLjU5OTk5NjU2Njc3MjQ2KSI+PGRpdiB4bWxucz0iaHR0cDovL3d3dy53My5vcmcvMTk5OS94aHRtbCIgc3R5bGU9ImRpc3BsYXk6IGlubGluZS1ibG9jazsgd2hpdGUtc3BhY2U6IG5vd3JhcDsiPjxzcGFuIGNsYXNzPSJub2RlTGFiZWwiPit+U2VydmVyKCkgOiA6IOa4heeQhui1hOa6kDwvc3Bhbj48L2Rpdj48L2ZvcmVpZ25PYmplY3Q+PGZvcmVpZ25PYmplY3Qgd2lkdGg9IjQ4OC41ODc0OTM4OTY0ODQ0IiBoZWlnaHQ9IjIwLjgwMDAwMTE0NDQwOTE4IiB0cmFuc2Zvcm09InRyYW5zbGF0ZSggLTI0NC4yOTM3NDY5NDgyNDIyLCA1My45OTk5OTYxODUzMDI3MzQpIj48ZGl2IHhtbG5zPSJodHRwOi8vd3d3LnczLm9yZy8xOTk5L3hodG1sIiBzdHlsZT0iZGlzcGxheTogaW5saW5lLWJsb2NrOyB3aGl0ZS1zcGFjZTogbm93cmFwOyI+PHNwYW4gY2xhc3M9Im5vZGVMYWJlbCI+K3ZvaWQgbmV3Q29ubmVjdGlvbihTb2NrZXQqIHNvY2spIDogOiDlpITnkIbmlrDov57mjqXvvIzliJvlu7pDb25uZWN0aW9uPC9zcGFuPjwvZGl2PjwvZm9yZWlnbk9iamVjdD48Zm9yZWlnbk9iamVjdCB3aWR0aD0iMzYwLjg1MDAwNjEwMzUxNTYiIGhlaWdodD0iMjAuODAwMDAxMTQ0NDA5MTgiIHRyYW5zZm9ybT0idHJhbnNsYXRlKCAtMjQ0LjI5Mzc0Njk0ODI0MjIsIDc2LjM5OTk5NTgwMzgzMzAxKSI+PGRpdiB4bWxucz0iaHR0cDovL3d3dy53My5vcmcvMTk5OS94aHRtbCIgc3R5bGU9ImRpc3BsYXk6IGlubGluZS1ibG9jazsgd2hpdGUtc3BhY2U6IG5vd3JhcDsiPjxzcGFuIGNsYXNzPSJub2RlTGFiZWwiPit2b2lkIGRlbGV0ZUNvbm5lY3Rpb24oU29ja2V0KiBzb2NrKSA6IDog5Yig6Zmk6L+e5o6lPC9zcGFuPjwvZGl2PjwvZm9yZWlnbk9iamVjdD48L2c+PC9nPjwvZz48L2c+PC9nPjwvc3ZnPg==;" vertex="1" parent="WIyWlLk6GJQsqaUBKTNV-1">
          <mxGeometry width="890" height="1200" as="geometry" />
        </mxCell>
      </root>
    </mxGraphModel>
  </diagram>
</mxfile>
